<?xml version="1.0" encoding="UTF-8"?>
<svg version="1.1" xmlns="http://www.w3.org/2000/svg" width="500" height="500">
	<path d="M0 0 C2.6875 0.1875 2.6875 0.1875 4.5625 1.1875 C6.80519209 2.43429923 6.80519209 2.43429923 10.0625 2.125 C13.6875 2.1875 13.6875 2.1875 16.5625 3.6875 C20.61066123 5.63061739 24.25577612 5.83748617 28.6875 5.1875 C30.1725 4.1975 30.1725 4.1975 31.6875 3.1875 C36.20862664 3.43188522 39.09053227 5.58543824 42.6875 8.1875 C43.47125 8.72375 44.255 9.26 45.0625 9.8125 C45.866875 10.493125 45.866875 10.493125 46.6875 11.1875 C46.6875 11.8475 46.6875 12.5075 46.6875 13.1875 C47.3475 13.1875 48.0075 13.1875 48.6875 13.1875 C48.6875 14.5075 48.6875 15.8275 48.6875 17.1875 C50.0075 17.1875 51.3275 17.1875 52.6875 17.1875 C53.14125 17.661875 53.595 18.13625 54.0625 18.625 C56.43904004 20.91013465 58.45413117 20.98953864 61.6875 21.1875 C64.43704328 20.22144425 65.37757757 19.80734486 66.6875 17.1875 C67.29078125 17.331875 67.8940625 17.47625 68.515625 17.625 C69.31484375 17.810625 70.1140625 17.99625 70.9375 18.1875 C71.72640625 18.373125 72.5153125 18.55875 73.328125 18.75 C75.94306002 19.30904828 75.94306002 19.30904828 79.6875 19.1875 C80.3475 17.8675 81.0075 16.5475 81.6875 15.1875 C87.3125 14.9375 87.3125 14.9375 90.6875 17.1875 C90.6875 18.1775 90.6875 19.1675 90.6875 20.1875 C92.36644363 21.83137431 94.18681268 23.17182779 96.05859375 24.58984375 C97.9275824 26.4229765 98.29624966 27.63610693 98.6875 30.1875 C100.9975 30.5175 103.3075 30.8475 105.6875 31.1875 C106.0175 32.8375 106.3475 34.4875 106.6875 36.1875 C107.450625 36.125625 108.21375 36.06375 109 36 C111.6875 36.1875 111.6875 36.1875 113.5625 37.3125 C115.59271588 40.69619314 113.9484717 44.11751604 113.0625 47.75 C112.53167935 50.19907525 112.53167935 50.19907525 113.25 52.625 C113.81799871 55.95184959 112.91114937 58.09238689 111.6875 61.1875 C113.6675 61.8475 115.6475 62.5075 117.6875 63.1875 C117.6875 63.8475 117.6875 64.5075 117.6875 65.1875 C119.0075 65.5175 120.3275 65.8475 121.6875 66.1875 C122.01759433 69.36535729 121.95680446 70.79724243 120.11328125 73.46875 C119.06720703 74.56703125 119.06720703 74.56703125 118 75.6875 C116.90365234 76.85152344 116.90365234 76.85152344 115.78515625 78.0390625 C115.09292969 78.74804688 114.40070313 79.45703125 113.6875 80.1875 C112.78 81.13625 111.8725 82.085 110.9375 83.0625 C108.30689084 85.54696421 105.9259003 87.67757047 102.5625 89.0625 C100.42275233 90.07922762 100.42275233 90.07922762 99.75 92.75 C99.399375 93.554375 99.04875 94.35875 98.6875 95.1875 C96.0625 96 96.0625 96 93.6875 96.1875 C93.7803125 97.734375 93.7803125 97.734375 93.875 99.3125 C93.67118639 103.52464787 92.76687852 107.10812148 89.6875 110.1875 C89.30081532 112.73116018 88.97465556 115.2571755 88.6875 117.8125 C88.59557373 118.57143555 88.50364746 119.33037109 88.40893555 120.11230469 C87.96894777 123.90843238 87.63633121 127.65420162 87.58203125 131.4765625 C87.37778818 141.33858499 87.37778818 141.33858499 85.140625 144.08984375 C83.25 145.375 83.25 145.375 79.6875 147.1875 C77.81720346 150.0386361 77.46046516 152.38663809 77.3125 155.75 C76.9411456 159.9655601 76.9411456 159.9655601 74.6875 161.9375 C74.0275 162.35 73.3675 162.7625 72.6875 163.1875 C71.8832792 165.78605733 71.8832792 165.78605733 71.6875 168.1875 C72.6775 168.5175 73.6675 168.8475 74.6875 169.1875 C76.3125 171.6875 76.3125 171.6875 77.6875 174.1875 C78.0175 174.5175 78.3475 174.8475 78.6875 175.1875 C78.81973768 176.56641723 78.89065998 177.9513595 78.93359375 179.3359375 C78.96646484 180.17640625 78.99933594 181.016875 79.03320312 181.8828125 C79.09412927 183.66133755 79.15145374 185.43998982 79.20507812 187.21875 C79.23923828 188.06179687 79.27339844 188.90484375 79.30859375 189.7734375 C79.3336499 190.5473584 79.35870605 191.3212793 79.38452148 192.11865234 C79.58127029 194.49212525 79.58127029 194.49212525 81.6875 197.1875 C82.60600524 201.75606521 82.88189612 206.09888172 82.0625 210.6875 C81.4631045 216.28185804 83.3718794 221.42327187 85.76953125 226.4609375 C87.24902075 230.8553361 87.04630775 235.3436717 87.078125 239.94921875 C87.23670465 244.92685776 87.96335276 247.56098958 91.6875 251.1875 C92.3475 251.5175 93.0075 251.8475 93.6875 252.1875 C93.6875 252.8475 93.6875 253.5075 93.6875 254.1875 C94.2964209 254.4443457 94.9053418 254.70119141 95.53271484 254.96582031 C101.54197796 258.37283965 104.36411838 267.37372107 107.0625 273.4375 C107.61357422 274.62085938 107.61357422 274.62085938 108.17578125 275.828125 C108.68818359 276.9728125 108.68818359 276.9728125 109.2109375 278.140625 C109.51950684 278.82286133 109.82807617 279.50509766 110.14599609 280.20800781 C110.78909848 282.55889788 110.46065796 283.9069071 109.6875 286.1875 C104.73983846 286.90136061 99.79191925 287.61339758 94.84375 288.32373047 C93.1597582 288.56573932 91.47583847 288.80825026 89.79199219 289.05126953 C87.37453593 289.400078 84.95682796 289.74709215 82.5390625 290.09375 C81.7838028 290.2031189 81.02854309 290.31248779 80.25039673 290.4251709 C74.91524341 291.1875 74.91524341 291.1875 72.6875 291.1875 C72.56375 292.280625 72.44 293.37375 72.3125 294.5 C71.6875 298.1875 71.6875 298.1875 69.6875 301.1875 C69.0275 301.1875 68.3675 301.1875 67.6875 301.1875 C67.6875 301.8475 67.6875 302.5075 67.6875 303.1875 C65.72602126 304.57688077 63.72583424 305.9135411 61.6875 307.1875 C62.3475 307.5175 63.0075 307.8475 63.6875 308.1875 C66.81473256 314.71588329 67.11861347 320.39824631 67 327.5625 C67.00483398 329.05716797 67.00483398 329.05716797 67.00976562 330.58203125 C66.9550047 337.9199953 66.9550047 337.9199953 64.6875 340.1875 C64.00224806 342.80365253 63.43332885 345.3484962 62.9375 348 C62.71126953 349.06831055 62.71126953 349.06831055 62.48046875 350.15820312 C61.66022999 354.46246574 61.38028785 357.38537821 63.6875 361.1875 C65.46284787 362.86574663 65.46284787 362.86574663 67.5625 364.1875 C70.24243971 366.05285372 71.8097309 367.34927619 73.8125 370 C75.58501355 372.49495935 75.58501355 372.49495935 78.9375 373 C79.845 373.061875 80.7525 373.12375 81.6875 373.1875 C82.0175 371.8675 82.3475 370.5475 82.6875 369.1875 C84.9975 368.5275 87.3075 367.8675 89.6875 367.1875 C90.6875 368.1875 90.6875 368.1875 90.80102539 370.87133789 C90.79578857 372.03914795 90.79055176 373.20695801 90.78515625 374.41015625 C90.78193359 375.67021484 90.77871094 376.93027344 90.77539062 378.22851562 C90.76703403 379.56901109 90.75856907 380.90950588 90.75 382.25 C90.7449866 383.59439942 90.74042342 384.9388006 90.73632812 386.28320312 C90.72449488 389.58467941 90.70800971 392.88606803 90.6875 396.1875 C89.0375 396.1875 87.3875 396.1875 85.6875 396.1875 C85.3575 394.8675 85.0275 393.5475 84.6875 392.1875 C83.841875 392.8475 82.99625 393.5075 82.125 394.1875 C78.25313053 396.44022405 76.08471203 396.53927696 71.6875 396.1875 C71.30078125 395.33285156 70.9140625 394.47820312 70.515625 393.59765625 C69.99484375 392.49292969 69.4740625 391.38820313 68.9375 390.25 C68.42703125 389.14785156 67.9165625 388.04570312 67.390625 386.91015625 C65.97499037 384.05067201 65.97499037 384.05067201 63.484375 383.30859375 C62.89140625 383.26863281 62.2984375 383.22867187 61.6875 383.1875 C61.56375 382.115 61.44 381.0425 61.3125 379.9375 C60.54636414 377.20050741 59.97819808 376.37090406 57.5390625 374.83203125 C52.73262818 372.83295872 48.90571657 372.06022643 43.6875 372.1875 C41.875 371.0625 41.875 371.0625 40.6875 369.1875 C40.56375 368.176875 40.44 367.16625 40.3125 366.125 C40.10625 365.155625 39.9 364.18625 39.6875 363.1875 C37.22494315 361.73458727 37.22494315 361.73458727 34.6875 361.1875 C34.6875 359.8675 34.6875 358.5475 34.6875 357.1875 C34.0275 357.5175 33.3675 357.8475 32.6875 358.1875 C32.39875 359.156875 32.11 360.12625 31.8125 361.125 C30.6875 364.1875 30.6875 364.1875 28.87670898 365.38964844 C26.47274985 366.26576514 25.05945714 366.30908767 22.53515625 366.015625 C21.37016602 365.88414062 21.37016602 365.88414062 20.18164062 365.75 C19.37919922 365.646875 18.57675781 365.54375 17.75 365.4375 C16.55213867 365.30601562 16.55213867 365.30601562 15.33007812 365.171875 C11.13190409 364.67101579 7.56737176 363.95499713 3.6875 362.1875 C2.02830104 361.81878912 0.3627357 361.47468326 -1.3125 361.1875 C-1.3125 360.5275 -1.3125 359.8675 -1.3125 359.1875 C-1.951875 359.001875 -2.59125 358.81625 -3.25 358.625 C-5.3125 357.1875 -5.3125 357.1875 -6.0625 353.5625 C-6.145 352.44875 -6.2275 351.335 -6.3125 350.1875 C-8.10573253 350.46937936 -9.89707126 350.7633281 -11.6875 351.0625 C-12.68523437 351.22492188 -13.68296875 351.38734375 -14.7109375 351.5546875 C-17.4550115 351.9833802 -17.4550115 351.9833802 -19.3125 354.1875 C-22.9375 353.8125 -22.9375 353.8125 -26.3125 353.1875 C-26.3125 352.5275 -26.3125 351.8675 -26.3125 351.1875 C-25.6525 351.1875 -24.9925 351.1875 -24.3125 351.1875 C-24.3125 349.5375 -24.3125 347.8875 -24.3125 346.1875 C-25.9625 346.1875 -27.6125 346.1875 -29.3125 346.1875 C-29.6425 344.8675 -29.9725 343.5475 -30.3125 342.1875 C-30.951875 342.88875 -31.59125 343.59 -32.25 344.3125 C-35.3125 346.1875 -35.3125 346.1875 -37.47265625 345.90234375 C-39.047867 345.46317815 -40.62207438 345.0203994 -42.1953125 344.57421875 C-45.29704155 344.00766676 -46.68443498 345.56060261 -49.3125 347.1875 C-54.11602705 347.62806017 -58.71765914 347.71911362 -63.3125 346.1875 C-63.3125 346.8475 -63.3125 347.5075 -63.3125 348.1875 C-65.2925 348.8475 -67.2725 349.5075 -69.3125 350.1875 C-70.3025 345.2375 -70.3025 345.2375 -71.3125 340.1875 C-70.3225 339.8575 -69.3325 339.5275 -68.3125 339.1875 C-68.62237617 336.93713714 -68.93549818 334.68722106 -69.25 332.4375 C-69.42402344 331.18453125 -69.59804687 329.9315625 -69.77734375 328.640625 C-70.04224609 326.93132812 -70.04224609 326.93132812 -70.3125 325.1875 C-70.41691406 324.41921875 -70.52132812 323.6509375 -70.62890625 322.859375 C-71.17164582 320.99127047 -71.17164582 320.99127047 -73.21191406 320.30444336 C-76.87911491 318.35448475 -78.12051439 315.04402055 -79.3125 311.1875 C-79.51165158 307.99767625 -79.12837541 305.02305244 -78.625 301.875 C-78.51994141 301.07771484 -78.41488281 300.28042969 -78.30664062 299.45898438 C-77.86180083 296.21411006 -77.3516522 293.30495661 -76.3125 290.1875 C-77.11266928 287.84160715 -77.11266928 287.84160715 -78.3125 285.375 C-80.11371613 281.09788541 -80.60143599 278.74835043 -79.3125 274.1875 C-78.9825 271.5475 -78.6525 268.9075 -78.3125 266.1875 C-87.2225 266.1875 -96.1325 266.1875 -105.3125 266.1875 C-105.3125 260.1875 -105.3125 260.1875 -104.3125 258.1875 C-104.96605469 258.51492188 -105.61960938 258.84234375 -106.29296875 259.1796875 C-110.1073756 260.4528013 -113.65730837 260.40468944 -117.625 260.3125 C-118.36556641 260.30347656 -119.10613281 260.29445313 -119.86914062 260.28515625 C-121.68373467 260.26174213 -123.49816071 260.22587615 -125.3125 260.1875 C-125.28929687 260.88617188 -125.26609375 261.58484375 -125.2421875 262.3046875 C-125.22414062 263.21476562 -125.20609375 264.12484375 -125.1875 265.0625 C-125.16429687 265.96742188 -125.14109375 266.87234375 -125.1171875 267.8046875 C-125.3125 270.1875 -125.3125 270.1875 -127.3125 272.1875 C-127.73387285 274.12741404 -127.73387285 274.12741404 -127.875 276.25 C-128.3125 280.1875 -128.3125 280.1875 -129.3125 281.1875 C-131.22602846 281.31369896 -133.14485023 281.36330701 -135.0625 281.375 C-136.10921875 281.38917969 -137.1559375 281.40335937 -138.234375 281.41796875 C-141.33330677 281.18594213 -143.51526014 280.49805867 -146.3125 279.1875 C-146.3125 279.8475 -146.3125 280.5075 -146.3125 281.1875 C-146.91578125 281.24808594 -147.5190625 281.30867188 -148.140625 281.37109375 C-149.33945312 281.49677734 -149.33945312 281.49677734 -150.5625 281.625 C-151.35140625 281.70621094 -152.1403125 281.78742188 -152.953125 281.87109375 C-155.27087983 282.1314872 -155.27087983 282.1314872 -157.3125 282.71875 C-159.62101256 283.25980763 -161.69454078 283.28482293 -164.0625 283.25 C-164.86171875 283.24097656 -165.6609375 283.23195313 -166.484375 283.22265625 C-167.38929688 283.20525391 -167.38929688 283.20525391 -168.3125 283.1875 C-168.84875 282.218125 -169.385 281.24875 -169.9375 280.25 C-172.50604423 275.74587423 -175.40344452 271.47627894 -178.3125 267.1875 C-180.3125 264.1875 -180.3125 264.1875 -180.75 260.8125 C-181.05930907 257.25830449 -181.05930907 257.25830449 -182.75 254.875 C-184.73155055 251.46673305 -185.17679548 248.25907063 -185.78515625 244.39453125 C-186.15462978 241.99642481 -186.15462978 241.99642481 -188.3125 240.1875 C-188.3125 238.8675 -188.3125 237.5475 -188.3125 236.1875 C-189.59487549 236.21779297 -190.87725098 236.24808594 -192.19848633 236.27929688 C-197.08593426 236.39383631 -201.97345795 236.50477299 -206.86102295 236.61419678 C-209.03213834 236.66295624 -211.20324046 236.71231065 -213.37432861 236.76226807 C-234.72839822 237.24963905 -234.72839822 237.24963905 -244.12890625 237.1484375 C-245.96328247 237.13006836 -245.96328247 237.13006836 -247.8347168 237.11132812 C-249.99138237 237.07991961 -252.14791805 237.03541418 -254.30395508 236.97460938 C-259.86547967 236.88773269 -264.19094677 237.47092033 -269.34423828 239.63330078 C-271.75600094 240.31237561 -272.98213248 240.05997916 -275.3125 239.1875 C-277.0199998 237.90687515 -278.69513741 236.5802289 -280.3125 235.1875 C-279.9825 234.1975 -279.6525 233.2075 -279.3125 232.1875 C-277.3325 231.8575 -275.3525 231.5275 -273.3125 231.1875 C-273.45429688 230.30707031 -273.59609375 229.42664063 -273.7421875 228.51953125 C-274.92490963 219.17187655 -274.92490963 219.17187655 -273.1484375 216.31640625 C-271.5625 215.0625 -271.5625 215.0625 -268.3125 213.1875 C-267.77625 212.589375 -267.24 211.99125 -266.6875 211.375 C-265.3125 210.1875 -265.3125 210.1875 -261.3125 210.1875 C-261.3125 209.5275 -261.3125 208.8675 -261.3125 208.1875 C-258.84449953 209.33923355 -257.26466435 210.23533565 -255.3125 212.1875 C-252.70969432 211.86708603 -252.70969432 211.86708603 -250.3125 211.1875 C-249.6525 209.2075 -248.9925 207.2275 -248.3125 205.1875 C-247.6525 205.27 -246.9925 205.3525 -246.3125 205.4375 C-242.64045692 205.13149641 -240.33362502 203.78725512 -237.1796875 201.96484375 C-235.3125 201.1875 -235.3125 201.1875 -232.3125 202.1875 C-231.8175 204.6625 -231.8175 204.6625 -231.3125 207.1875 C-231.9725 207.1875 -232.6325 207.1875 -233.3125 207.1875 C-232.9825 209.1675 -232.6525 211.1475 -232.3125 213.1875 C-229.6725 213.1875 -227.0325 213.1875 -224.3125 213.1875 C-224.3125 212.1975 -224.3125 211.2075 -224.3125 210.1875 C-223.6525 210.1875 -222.9925 210.1875 -222.3125 210.1875 C-222.085625 209.630625 -221.85875 209.07375 -221.625 208.5 C-219.91401785 205.48541241 -217.940127 203.43975171 -215.3125 201.1875 C-213.9925 201.1875 -212.6725 201.1875 -211.3125 201.1875 C-211.250625 200.56875 -211.18875 199.95 -211.125 199.3125 C-210.3125 197.1875 -210.3125 197.1875 -207.9375 195.9375 C-205.3125 195.1875 -205.3125 195.1875 -202.3125 195.1875 C-202.23 194.506875 -202.1475 193.82625 -202.0625 193.125 C-201.3125 190.1875 -201.3125 190.1875 -199.26953125 187.23046875 C-196.35707093 182.25289244 -196.99089941 177.15623326 -197.25 171.5625 C-197.77521505 159.11411946 -197.77521505 159.11411946 -194.3125 155.1875 C-193.631875 154.8575 -192.95125 154.5275 -192.25 154.1875 C-189.46591059 152.75055063 -189.37552442 151.12644988 -188.3125 148.1875 C-184.85623471 141.01894977 -181.68989562 136.69690422 -174.3125 133.375 C-169.91902315 131.1990247 -167.12576948 128.82497682 -165.3125 124.1875 C-164.90450979 120.84864135 -164.74765561 117.55638738 -164.6328125 114.1953125 C-164.3125 111.1875 -164.3125 111.1875 -162.125 108 C-160.0468244 105.41028335 -160.0468244 105.41028335 -160.53125 102.82421875 C-160.92672236 101.06800928 -161.34341441 99.31644253 -161.78125 97.5703125 C-162.78044614 93.08862393 -161.63844168 89.92086879 -159.8125 85.8125 C-158.12894654 81.68302926 -158.14437324 77.70416009 -158.0625 73.3125 C-157.88027917 66.53357225 -156.27549475 62.47738648 -151.9609375 57.23828125 C-149.94405736 54.72912942 -149.14076922 52.27468528 -148.3125 49.1875 C-147.6525 48.1975 -146.9925 47.2075 -146.3125 46.1875 C-146.02179488 44.02919382 -146.02179488 44.02919382 -146.08203125 41.66015625 C-146.08396484 40.78552734 -146.08589844 39.91089844 -146.08789062 39.00976562 C-146.10013672 38.09904297 -146.11238281 37.18832031 -146.125 36.25 C-146.12564453 35.34314453 -146.12628906 34.43628906 -146.12695312 33.50195312 C-146.15313246 29.5488742 -146.21794428 26.00834564 -147.3125 22.1875 C-146.19875 21.630625 -146.19875 21.630625 -145.0625 21.0625 C-141.80216172 18.83954208 -140.42915583 16.49477473 -138.3125 13.1875 C-135.8125 10.5 -135.8125 10.5 -133.3125 8.1875 C-132.735 7.589375 -132.1575 6.99125 -131.5625 6.375 C-127.82357332 4.40167758 -124.42750059 4.37976418 -120.3125 5.1875 C-116.71470931 6.8237692 -113.3945218 8.70386656 -110.3125 11.1875 C-110.3125 11.8475 -110.3125 12.5075 -110.3125 13.1875 C-109.3225 13.1875 -108.3325 13.1875 -107.3125 13.1875 C-106.9103125 14.6415625 -106.9103125 14.6415625 -106.5 16.125 C-104.68224663 19.38816407 -104.68224663 19.38816407 -101.875 19.73828125 C-99.92780634 19.87320907 -97.97797928 19.97376092 -96.02734375 20.04296875 C-92.86407814 20.21137282 -90.29688252 21.17009687 -87.3125 22.1875 C-86.219375 22.1875 -85.12625 22.1875 -84 22.1875 C-77.21535945 22.1875 -70.77606781 24.26218193 -64.3125 26.1875 C-64.044375 24.929375 -63.77625 23.67125 -63.5 22.375 C-62.67930078 19.10942057 -62.04277046 17.28770805 -59.3125 15.1875 C-58.590625 14.465625 -57.86875 13.74375 -57.125 13 C-56.526875 12.401875 -55.92875 11.80375 -55.3125 11.1875 C-54.24 11.496875 -53.1675 11.80625 -52.0625 12.125 C-50.825 12.475625 -49.5875 12.82625 -48.3125 13.1875 C-47.70535156 13.42082031 -47.09820312 13.65414062 -46.47265625 13.89453125 C-43.22771183 14.33462317 -41.0038613 13.16587101 -38 11.9375 C-36.85144531 11.4734375 -35.70289063 11.009375 -34.51953125 10.53125 C-31.10842708 9.1019932 -27.70420482 7.66215427 -24.3125 6.1875 C-22.8275 5.6925 -22.8275 5.6925 -21.3125 5.1875 C-20.4771875 5.93 -20.4771875 5.93 -19.625 6.6875 C-16.12020787 8.96087868 -13.25590382 7.96644396 -9.3125 7.1875 C-8.136875 7.06375 -8.136875 7.06375 -6.9375 6.9375 C-5.02165613 6.26363232 -5.02165613 6.26363232 -4.125 3.6875 C-3.856875 2.8625 -3.58875 2.0375 -3.3125 1.1875 C-2.3125 0.1875 -2.3125 0.1875 0 0 Z " fill="#0F0F0F" transform="translate(315.3125,51.8125)"/>
	<path d="M0 0 C2.6875 0.1875 2.6875 0.1875 4.5625 1.1875 C6.80519209 2.43429923 6.80519209 2.43429923 10.0625 2.125 C13.6875 2.1875 13.6875 2.1875 16.5625 3.6875 C20.61066123 5.63061739 24.25577612 5.83748617 28.6875 5.1875 C29.6775 4.5275 30.6675 3.8675 31.6875 3.1875 C36.20862664 3.43188522 39.09053227 5.58543824 42.6875 8.1875 C43.47125 8.72375 44.255 9.26 45.0625 9.8125 C45.866875 10.493125 45.866875 10.493125 46.6875 11.1875 C46.6875 11.8475 46.6875 12.5075 46.6875 13.1875 C47.3475 13.1875 48.0075 13.1875 48.6875 13.1875 C48.6875 14.5075 48.6875 15.8275 48.6875 17.1875 C50.0075 17.1875 51.3275 17.1875 52.6875 17.1875 C53.14125 17.661875 53.595 18.13625 54.0625 18.625 C56.43904004 20.91013465 58.45413117 20.98953864 61.6875 21.1875 C64.43704328 20.22144425 65.37757757 19.80734486 66.6875 17.1875 C67.29078125 17.331875 67.8940625 17.47625 68.515625 17.625 C69.31484375 17.810625 70.1140625 17.99625 70.9375 18.1875 C71.72640625 18.373125 72.5153125 18.55875 73.328125 18.75 C75.94306002 19.30904828 75.94306002 19.30904828 79.6875 19.1875 C80.3475 17.8675 81.0075 16.5475 81.6875 15.1875 C87.3125 14.9375 87.3125 14.9375 90.6875 17.1875 C90.6875 18.1775 90.6875 19.1675 90.6875 20.1875 C92.36644363 21.83137431 94.18681268 23.17182779 96.05859375 24.58984375 C97.9275824 26.4229765 98.29624966 27.63610693 98.6875 30.1875 C100.9975 30.5175 103.3075 30.8475 105.6875 31.1875 C106.0175 32.8375 106.3475 34.4875 106.6875 36.1875 C107.450625 36.125625 108.21375 36.06375 109 36 C111.6875 36.1875 111.6875 36.1875 113.5625 37.3125 C115.59271588 40.69619314 113.9484717 44.11751604 113.0625 47.75 C112.53167935 50.19907525 112.53167935 50.19907525 113.25 52.625 C113.81799871 55.95184959 112.91114937 58.09238689 111.6875 61.1875 C113.6675 61.8475 115.6475 62.5075 117.6875 63.1875 C117.6875 63.8475 117.6875 64.5075 117.6875 65.1875 C119.0075 65.5175 120.3275 65.8475 121.6875 66.1875 C122.01759433 69.36535729 121.95680446 70.79724243 120.11328125 73.46875 C119.06720703 74.56703125 119.06720703 74.56703125 118 75.6875 C116.90365234 76.85152344 116.90365234 76.85152344 115.78515625 78.0390625 C115.09292969 78.74804688 114.40070313 79.45703125 113.6875 80.1875 C112.78 81.13625 111.8725 82.085 110.9375 83.0625 C108.30689084 85.54696421 105.9259003 87.67757047 102.5625 89.0625 C100.42275233 90.07922762 100.42275233 90.07922762 99.75 92.75 C99.399375 93.554375 99.04875 94.35875 98.6875 95.1875 C96.0625 96 96.0625 96 93.6875 96.1875 C93.605 96.80625 93.5225 97.425 93.4375 98.0625 C92.6875 100.1875 92.6875 100.1875 90.625 101.4375 C89.985625 101.685 89.34625 101.9325 88.6875 102.1875 C87.6975 101.1975 86.7075 100.2075 85.6875 99.1875 C86.0175 98.1975 86.3475 97.2075 86.6875 96.1875 C85.3675 96.1875 84.0475 96.1875 82.6875 96.1875 C82.07648438 97.13302734 82.07648438 97.13302734 81.453125 98.09765625 C78.7472572 101.30039801 75.38895056 101.22985494 71.4375 101.625 C70.69886719 101.72748047 69.96023438 101.82996094 69.19921875 101.93554688 C63.79700916 102.54055624 60.50500034 101.6918355 55.6875 99.1875 C55.71106567 100.07272339 55.71106567 100.07272339 55.73510742 100.97583008 C55.79747939 103.65045586 55.83649657 106.32492864 55.875 109 C55.90013672 109.92876953 55.92527344 110.85753906 55.95117188 111.81445312 C55.96567383 113.1534668 55.96567383 113.1534668 55.98046875 114.51953125 C56.00403442 115.75280151 56.00403442 115.75280151 56.02807617 117.01098633 C55.60666517 119.70408964 54.66869767 120.39674789 52.6875 122.1875 C52.3575 123.1775 52.0275 124.1675 51.6875 125.1875 C51.3575 125.1875 51.0275 125.1875 50.6875 125.1875 C50.5 122.8125 50.5 122.8125 50.6875 120.1875 C51.6775 119.5275 52.6675 118.8675 53.6875 118.1875 C53.45989693 115.89350066 53.20471121 113.60222363 52.9375 111.3125 C52.72867188 109.39824219 52.72867188 109.39824219 52.515625 107.4453125 C52.04349986 104.09849877 52.04349986 104.09849877 49.609375 102.7421875 C48.65804687 102.46761719 48.65804687 102.46761719 47.6875 102.1875 C48.0175 101.5275 48.3475 100.8675 48.6875 100.1875 C49.3475 100.1875 50.0075 100.1875 50.6875 100.1875 C50.40598913 98.87278432 50.11196661 97.56074233 49.8125 96.25 C49.65007812 95.51910156 49.48765625 94.78820312 49.3203125 94.03515625 C48.85788477 91.98049706 48.85788477 91.98049706 46.6875 91.1875 C46.584375 90.383125 46.48125 89.57875 46.375 88.75 C46.148125 87.904375 45.92125 87.05875 45.6875 86.1875 C43.31124655 85.00358777 43.31124655 85.00358777 40.6875 84.1875 C39 82.625 39 82.625 37.6875 81.1875 C37.0275 80.8575 36.3675 80.5275 35.6875 80.1875 C36.3475 77.8775 37.0075 75.5675 37.6875 73.1875 C36.759375 73.414375 35.83125 73.64125 34.875 73.875 C31.6875 74.1875 31.6875 74.1875 29.8125 72.875 C28.6875 71.1875 28.6875 71.1875 28.6875 69.1875 C27.470625 69.538125 26.25375 69.88875 25 70.25 C21.56663104 71.12206352 19.13400141 71.26453169 15.6875 70.1875 C15.6875 68.5375 15.6875 66.8875 15.6875 65.1875 C14.924375 65.496875 14.16125 65.80625 13.375 66.125 C7.49351157 67.81966616 1.52540207 68.59389031 -4.55859375 67.72265625 C-9.04419485 67.0831897 -13.41309846 66.96577751 -17.9375 66.9375 C-18.77023437 66.916875 -19.60296875 66.89625 -20.4609375 66.875 C-25.373608 66.84370911 -28.18954846 67.27446134 -32.3125 70.1875 C-37.29840772 69.9659041 -41.71779312 68.00953893 -46.3125 66.1875 C-46.3125 67.5075 -46.3125 68.8275 -46.3125 70.1875 C-47.364375 69.98125 -48.41625 69.775 -49.5 69.5625 C-53.17806641 68.87614013 -53.17806641 68.87614013 -55.75 70.3125 C-59.71507492 71.66642802 -62.64066933 69.88219108 -66.3125 68.1875 C-66.3125 67.5275 -66.3125 66.8675 -66.3125 66.1875 C-65.61125 66.331875 -64.91 66.47625 -64.1875 66.625 C-63.23875 66.810625 -62.29 66.99625 -61.3125 67.1875 C-60.260625 67.414375 -59.20875 67.64125 -58.125 67.875 C-57.196875 67.978125 -56.26875 68.08125 -55.3125 68.1875 C-54.6525 67.5275 -53.9925 66.8675 -53.3125 66.1875 C-51.04975212 66.54105436 -49.36161148 67.16294426 -47.3125 68.1875 C-47.3125 67.1975 -47.3125 66.2075 -47.3125 65.1875 C-44.3425 65.6825 -44.3425 65.6825 -41.3125 66.1875 C-41.6425 64.5375 -41.9725 62.8875 -42.3125 61.1875 C-42.98796875 61.13851562 -43.6634375 61.08953125 -44.359375 61.0390625 C-45.25140625 60.96429688 -46.1434375 60.88953125 -47.0625 60.8125 C-47.94421875 60.74289063 -48.8259375 60.67328125 -49.734375 60.6015625 C-52.30316382 60.18899945 -54.07091015 59.47589043 -56.3125 58.1875 C-55.78981534 55.42473823 -55.20380413 52.8614124 -54.3125 50.1875 C-55.6325 49.8575 -56.9525 49.5275 -58.3125 49.1875 C-58.3125 48.5275 -58.3125 47.8675 -58.3125 47.1875 C-59.6325 47.1875 -60.9525 47.1875 -62.3125 47.1875 C-62.3125 48.5075 -62.3125 49.8275 -62.3125 51.1875 C-67.38174197 51.99857872 -72.36518411 52.32951228 -77.5 52.4375 C-78.66917969 52.46328125 -79.83835937 52.4890625 -81.04296875 52.515625 C-84.58602501 52.16004946 -86.44539943 51.23928572 -89.3125 49.1875 C-89.9725 50.1775 -90.6325 51.1675 -91.3125 52.1875 C-93.3125 52.1875 -93.3125 52.1875 -95.8125 49.75 C-96.6375 48.904375 -97.4625 48.05875 -98.3125 47.1875 C-98.9725 46.8575 -99.6325 46.5275 -100.3125 46.1875 C-99.31056563 49.98053725 -98.50225773 52.90286341 -96.3125 56.1875 C-96.4375 58.75 -96.4375 58.75 -97.3125 61.1875 C-100.47438326 63.30259198 -102.90074021 63.27178311 -106.625 63.1875 C-110.97393487 63.4900714 -110.97393487 63.4900714 -114.1640625 66.26171875 C-115.24034708 68.03520245 -116.30109324 69.81819136 -117.34765625 71.609375 C-120.38551327 75.59542993 -124.29283981 77.04533355 -128.8359375 78.93359375 C-131.63640891 79.98666363 -131.63640891 79.98666363 -132.3125 83.1875 C-131.59964844 82.77757812 -130.88679688 82.36765625 -130.15234375 81.9453125 C-119.84724825 76.14782943 -113.06274412 74.87995404 -101.3125 76.1875 C-101.3125 79.4875 -101.3125 82.7875 -101.3125 86.1875 C-99.0025 86.1875 -96.6925 86.1875 -94.3125 86.1875 C-93.6875 88.0625 -93.6875 88.0625 -93.3125 90.1875 C-93.9725 90.8475 -94.6325 91.5075 -95.3125 92.1875 C-95.3125 90.8675 -95.3125 89.5475 -95.3125 88.1875 C-96.79156892 88.16060784 -98.27077483 88.14115379 -99.75 88.125 C-100.57371094 88.11339844 -101.39742188 88.10179687 -102.24609375 88.08984375 C-104.30413938 87.95482652 -104.30413938 87.95482652 -105.3125 89.1875 C-105.5236342 90.74461476 -105.68142423 92.30911266 -105.8125 93.875 C-106.06737092 96.90321209 -106.41091392 99.59629629 -107.125 102.5625 C-107.186875 103.42875 -107.24875 104.295 -107.3125 105.1875 C-106.02146357 106.5618291 -104.6868291 107.89646357 -103.3125 109.1875 C-103.0625 111.9375 -103.0625 111.9375 -103.3125 114.1875 C-103.951875 114.47625 -104.59125 114.765 -105.25 115.0625 C-107.46456079 116.01573451 -107.46456079 116.01573451 -108.3125 118.1875 C-110.97916667 117.52083333 -113.64583333 116.85416667 -116.3125 116.1875 C-115.86777344 116.744375 -115.42304688 117.30125 -114.96484375 117.875 C-109.76500669 124.88708095 -109.76500669 124.88708095 -110.3125 129.5625 C-111.3125 133.1875 -111.3125 133.1875 -113.3125 136.1875 C-115.40625 136.953125 -115.40625 136.953125 -117.8125 137.4375 C-118.6065625 137.60765625 -119.400625 137.7778125 -120.21875 137.953125 C-122.3125 138.1875 -122.3125 138.1875 -124.3125 137.1875 C-126.11869523 141.64986469 -126.42908501 144.49784294 -125.3125 149.1875 C-124.6525 149.1875 -123.9925 149.1875 -123.3125 149.1875 C-122.6525 147.8675 -121.9925 146.5475 -121.3125 145.1875 C-117.4375 148.9375 -117.4375 148.9375 -116.3125 151.1875 C-110.03629802 154.38476716 -110.03629802 154.38476716 -103.3125 154.5625 C-100.3125 154.1875 -100.3125 154.1875 -98.4375 155.625 C-98.06625 156.140625 -97.695 156.65625 -97.3125 157.1875 C-97.6425 157.8475 -97.9725 158.5075 -98.3125 159.1875 C-98.8075 158.4140625 -98.8075 158.4140625 -99.3125 157.625 C-101.44243319 155.74970129 -101.44243319 155.74970129 -105.25 156.6875 C-105.95640625 156.80738281 -106.6628125 156.92726562 -107.390625 157.05078125 C-109.3125 157.1875 -109.3125 157.1875 -111.5 155.875 C-112.098125 155.318125 -112.69625 154.76125 -113.3125 154.1875 C-114.158125 153.878125 -115.00375 153.56875 -115.875 153.25 C-118.68341206 152.02582039 -119.6949521 150.741523 -121.3125 148.1875 C-122.3025 149.1775 -123.2925 150.1675 -124.3125 151.1875 C-125.3025 150.8575 -126.2925 150.5275 -127.3125 150.1875 C-128.41015625 147.31640625 -128.41015625 147.31640625 -129.375 143.75 C-130.51625546 138.99657708 -130.51625546 138.99657708 -133.3125 135.1875 C-133.9375 133.0625 -133.9375 133.0625 -134.3125 131.1875 C-136.2925 131.1875 -138.2725 131.1875 -140.3125 131.1875 C-140.3125 133.80863708 -139.99957555 135.69685112 -139.3125 138.1875 C-143.1222748 140.0923874 -147.40325645 139.40571845 -151.4375 138.4375 C-155.38266681 138.09444202 -156.28213277 139.74563887 -159.3125 142.1875 C-162.29155026 143.55025703 -165.3110721 144.6869609 -168.375 145.84375 C-171.47045427 147.25975568 -173.69730979 149.0317351 -176.3125 151.1875 C-177.3025 151.5175 -178.2925 151.8475 -179.3125 152.1875 C-179.3125 153.1775 -179.3125 154.1675 -179.3125 155.1875 C-182.2825 155.5175 -185.2525 155.8475 -188.3125 156.1875 C-188.3125 155.5275 -188.3125 154.8675 -188.3125 154.1875 C-189.9625 154.5175 -191.6125 154.8475 -193.3125 155.1875 C-192.8175 154.1975 -192.8175 154.1975 -192.3125 153.1875 C-191.6525 153.1875 -190.9925 153.1875 -190.3125 153.1875 C-189.9721875 152.2284375 -189.9721875 152.2284375 -189.625 151.25 C-186.06157144 142.93533337 -182.78584565 137.19039016 -174.3125 133.375 C-169.91902315 131.1990247 -167.12576948 128.82497682 -165.3125 124.1875 C-164.90450979 120.84864135 -164.74765561 117.55638738 -164.6328125 114.1953125 C-164.3125 111.1875 -164.3125 111.1875 -162.125 108 C-160.0468244 105.41028335 -160.0468244 105.41028335 -160.53125 102.82421875 C-160.92672236 101.06800928 -161.34341441 99.31644253 -161.78125 97.5703125 C-162.78044614 93.08862393 -161.63844168 89.92086879 -159.8125 85.8125 C-158.12894654 81.68302926 -158.14437324 77.70416009 -158.0625 73.3125 C-157.88027917 66.53357225 -156.27549475 62.47738648 -151.9609375 57.23828125 C-149.94405736 54.72912942 -149.14076922 52.27468528 -148.3125 49.1875 C-147.6525 48.1975 -146.9925 47.2075 -146.3125 46.1875 C-146.02179488 44.02919382 -146.02179488 44.02919382 -146.08203125 41.66015625 C-146.08396484 40.78552734 -146.08589844 39.91089844 -146.08789062 39.00976562 C-146.10013672 38.09904297 -146.11238281 37.18832031 -146.125 36.25 C-146.12564453 35.34314453 -146.12628906 34.43628906 -146.12695312 33.50195312 C-146.15313246 29.5488742 -146.21794428 26.00834564 -147.3125 22.1875 C-146.57 21.81625 -145.8275 21.445 -145.0625 21.0625 C-141.80216172 18.83954208 -140.42915583 16.49477473 -138.3125 13.1875 C-135.8125 10.5 -135.8125 10.5 -133.3125 8.1875 C-132.735 7.589375 -132.1575 6.99125 -131.5625 6.375 C-127.82357332 4.40167758 -124.42750059 4.37976418 -120.3125 5.1875 C-116.71470931 6.8237692 -113.3945218 8.70386656 -110.3125 11.1875 C-110.3125 11.8475 -110.3125 12.5075 -110.3125 13.1875 C-109.3225 13.1875 -108.3325 13.1875 -107.3125 13.1875 C-106.9103125 14.6415625 -106.9103125 14.6415625 -106.5 16.125 C-104.68224663 19.38816407 -104.68224663 19.38816407 -101.875 19.73828125 C-99.92780634 19.87320907 -97.97797928 19.97376092 -96.02734375 20.04296875 C-92.86407814 20.21137282 -90.29688252 21.17009687 -87.3125 22.1875 C-86.219375 22.1875 -85.12625 22.1875 -84 22.1875 C-77.21535945 22.1875 -70.77606781 24.26218193 -64.3125 26.1875 C-64.044375 24.929375 -63.77625 23.67125 -63.5 22.375 C-62.67930078 19.10942057 -62.04277046 17.28770805 -59.3125 15.1875 C-58.590625 14.465625 -57.86875 13.74375 -57.125 13 C-56.526875 12.401875 -55.92875 11.80375 -55.3125 11.1875 C-54.24 11.496875 -53.1675 11.80625 -52.0625 12.125 C-50.825 12.475625 -49.5875 12.82625 -48.3125 13.1875 C-47.70535156 13.42082031 -47.09820312 13.65414062 -46.47265625 13.89453125 C-43.22771183 14.33462317 -41.0038613 13.16587101 -38 11.9375 C-36.85144531 11.4734375 -35.70289063 11.009375 -34.51953125 10.53125 C-31.10842708 9.1019932 -27.70420482 7.66215427 -24.3125 6.1875 C-23.3225 5.8575 -22.3325 5.5275 -21.3125 5.1875 C-20.755625 5.6825 -20.19875 6.1775 -19.625 6.6875 C-16.12020787 8.96087868 -13.25590382 7.96644396 -9.3125 7.1875 C-8.136875 7.06375 -8.136875 7.06375 -6.9375 6.9375 C-5.02165613 6.26363232 -5.02165613 6.26363232 -4.125 3.6875 C-3.856875 2.8625 -3.58875 2.0375 -3.3125 1.1875 C-2.3125 0.1875 -2.3125 0.1875 0 0 Z " fill="#121212" transform="translate(315.3125,51.8125)"/>
	<path d="M0 0 C3.81684226 1.55500981 6.19195732 4.03595495 9 7 C10.051875 6.649375 11.10375 6.29875 12.1875 5.9375 C15.7954681 5.05029473 17.52632489 4.94737118 21 6 C21.495 8.475 21.495 8.475 22 11 C22.59167969 11.04898438 23.18335938 11.09796875 23.79296875 11.1484375 C28.19104472 11.56456867 31.96928897 12.04965595 36 14 C36 15.65 36 17.3 36 19 C32.7 19.33 29.4 19.66 26 20 C26 22.31 26 24.62 26 27 C27.485 27.495 27.485 27.495 29 28 C29.6875 30.0625 29.6875 30.0625 30 32 C30.66 32 31.32 32 32 32 C37 37.23809524 37 37.23809524 37 42 C39.31 41.01 41.62 40.02 44 39 C44.33 39.66 44.66 40.32 45 41 C47.02463255 41.65213292 47.02463255 41.65213292 49 42 C49 41.34 49 40.68 49 40 C50.010625 39.7525 51.02125 39.505 52.0625 39.25 C54.87550438 38.46734959 57.09498335 37.42821361 59.5625 35.875 C63.14389771 33.92151034 65.00445662 33.61019089 69 34 C68.5359375 34.9590625 68.5359375 34.9590625 68.0625 35.9375 C67.0958705 38.72366738 66.81892699 40.72555503 66.625 43.625 C66.25503356 47.77684564 66.25503356 47.77684564 64 49.75 C63.34 50.1625 62.68 50.575 62 51 C61.1957792 53.59855733 61.1957792 53.59855733 61 56 C62.485 56.495 62.485 56.495 64 57 C65.625 59.5 65.625 59.5 67 62 C67.33 62.33 67.66 62.66 68 63 C68.13223768 64.37891723 68.20315998 65.7638595 68.24609375 67.1484375 C68.27896484 67.98890625 68.31183594 68.829375 68.34570312 69.6953125 C68.40662927 71.47383755 68.46395374 73.25248982 68.51757812 75.03125 C68.55173828 75.87429687 68.58589844 76.71734375 68.62109375 77.5859375 C68.6461499 78.3598584 68.67120605 79.1337793 68.69702148 79.93115234 C68.89377029 82.30462525 68.89377029 82.30462525 71 85 C72.53729842 92.64638864 71.51509776 99.42451121 70 107 C48.55 107.33 27.1 107.66 5 108 C4.03911617 110.88265149 3.88329059 112.67662271 3.90234375 115.66796875 C3.90556641 116.56064453 3.90878906 117.45332031 3.91210938 118.37304688 C3.92048828 119.30181641 3.92886719 120.23058594 3.9375 121.1875 C3.94201172 122.12787109 3.94652344 123.06824219 3.95117188 124.03710938 C3.96295374 126.35813712 3.97940442 128.67903644 4 131 C3.67 131 3.34 131 3 131 C-0.26659168 113.53318335 -0.26659168 113.53318335 3 107 C2.31373535 107.00523682 1.6274707 107.01047363 0.92041016 107.01586914 C-2.17805064 107.03660956 -5.27649686 107.04965076 -8.375 107.0625 C-9.45523438 107.07087891 -10.53546875 107.07925781 -11.6484375 107.08789062 C-12.6796875 107.09111328 -13.7109375 107.09433594 -14.7734375 107.09765625 C-15.72653809 107.10289307 -16.67963867 107.10812988 -17.66162109 107.11352539 C-20 107 -20 107 -22 106 C-22 105.01 -22 104.02 -22 103 C-23.423125 103.99 -23.423125 103.99 -24.875 105 C-28 107 -28 107 -30 107 C-30 108.98 -30 110.96 -30 113 C-32.74160552 114.25330538 -34.64514865 115.00825236 -37.6875 114.9375 C-38.450625 114.958125 -39.21375 114.97875 -40 115 C-40.66 115.99 -41.32 116.98 -42 118 C-42 116.35 -42 114.7 -42 113 C-38.7 113 -35.4 113 -32 113 C-31.95875 111.9275 -31.9175 110.855 -31.875 109.75 C-30.75352551 104.94368076 -28.97436967 104.62139276 -25 102 C-24.66659529 98.95804573 -24.66659529 98.95804573 -25 96 C-24.34 95.01 -23.68 94.02 -23 93 C-23.20750404 89.26492727 -23.56702134 86.69276585 -25.5625 83.5 C-27.52905507 80.07990423 -27.47800687 77.89234169 -27 74 C-25.70672372 71.97386717 -24.3703055 69.97485205 -23 68 C-20.65741095 62.23551385 -20.96516432 57.04120289 -22 51 C-23.98 51 -25.96 51 -28 51 C-28.69699552 49.54618103 -29.38233866 48.08677047 -30.0625 46.625 C-30.44535156 45.81289062 -30.82820313 45.00078125 -31.22265625 44.1640625 C-31.47917969 43.44992188 -31.73570312 42.73578125 -32 42 C-31.67 41.34 -31.34 40.68 -31 40 C-30.67 40.33 -30.34 40.66 -30 41 C-27.24260403 41.29289936 -24.51527408 41.51609871 -21.75 41.6875 C-20.98558594 41.74744141 -20.22117187 41.80738281 -19.43359375 41.86914062 C-15.06341026 42.14463578 -12.00112916 42.02246857 -8 40 C-7.01 39.67 -6.02 39.34 -5 39 C-4.67 36.03 -4.34 33.06 -4 30 C-3.01 30 -2.02 30 -1 30 C-0.96261719 29.37351563 -0.92523438 28.74703125 -0.88671875 28.1015625 C-0.82097656 27.28429687 -0.75523437 26.46703125 -0.6875 25.625 C-0.60048828 24.40683594 -0.60048828 24.40683594 -0.51171875 23.1640625 C0 21 0 21 3 19 C3.36853269 14.4301946 3.61290872 10.91936308 1 7 C-1 4 -1 4 -0.625 1.8125 C-0.41875 1.214375 -0.2125 0.61625 0 0 Z " fill="#101010" transform="translate(326,164)"/>
	<path d="M0 0 C0 0.33 0 0.66 0 1 C-0.86625 1.2475 -1.7325 1.495 -2.625 1.75 C-6.18302254 3.06778613 -8.9226155 4.80186822 -12 7 C-11.67 7.33 -11.34 7.66 -11 8 C-9.865625 7.979375 -8.73125 7.95875 -7.5625 7.9375 C-4 8 -4 8 -2 10 C1.08347826 10.16681109 1.08347826 10.16681109 4 10 C4.33 8.68 4.66 7.36 5 6 C8.37817425 5.15545644 10.67465243 4.89155081 14 6 C13.731875 6.515625 13.46375 7.03125 13.1875 7.5625 C12.795625 8.366875 12.40375 9.17125 12 10 C11.2265625 11.3921875 11.2265625 11.3921875 10.4375 12.8125 C7.78163165 18.97357531 6.89646256 28.68938769 9 35 C10.0725 34.79375 11.145 34.5875 12.25 34.375 C15.87619096 34.0123809 17.08291076 34.01637931 20 36 C20 36.66 20 37.32 20 38 C22.64 38 25.28 38 28 38 C28.66 39.32 29.32 40.64 30 42 C30.99 42 31.98 42 33 42 C33 42.66 33 43.32 33 44 C33.99 44 34.98 44 36 44 C36.495 45.98 36.495 45.98 37 48 C37.928125 47.34 38.85625 46.68 39.8125 46 C43 44 43 44 46 44 C46 45.32 46 46.64 46 48 C47.485 48.99 47.485 48.99 49 50 C49.33 50.33 49.66 50.66 50 51 C50 50.34 50 49.68 50 49 C50.66 49 51.32 49 52 49 C52 48.29875 52 47.5975 52 46.875 C53.2126529 43.38862291 53.94986032 43.38380628 57.0625 41.6875 C59.35763498 40.26461346 59.35763498 40.26461346 61 38 C62.24033863 30.08422778 61.24427868 21.79917679 60.0234375 13.91796875 C60 12 60 12 62 9 C61.93489583 10.88802083 61.86979167 12.77604167 61.8046875 14.6640625 C61.91401332 17.12913137 61.91401332 17.12913137 62.98046875 19.8359375 C64.87230734 25.70716071 65.56779251 33.39796431 63.0546875 39.171875 C60.61050405 42.27706404 57.75469861 43.92722897 54 45 C54.24445697 51.29476689 54.52692657 55.23834118 59 60 C59 60.99 59 61.98 59 63 C61.31 63 63.62 63 66 63 C66 63.33 66 63.66 66 64 C60.72 64 55.44 64 50 64 C50.04125 65.60875 50.0825 67.2175 50.125 68.875 C50.1953125 71.6171875 50.1953125 71.6171875 50 74 C49.34 74.66 48.68 75.32 48 76 C47.57862715 77.93991404 47.57862715 77.93991404 47.4375 80.0625 C47 84 47 84 46 85 C44.08647154 85.12619896 42.16764977 85.17580701 40.25 85.1875 C39.20328125 85.20167969 38.1565625 85.21585937 37.078125 85.23046875 C33.97919323 84.99844213 31.79723986 84.31055867 29 83 C29 83.66 29 84.32 29 85 C28.39671875 85.06058594 27.7934375 85.12117188 27.171875 85.18359375 C26.37265625 85.26738281 25.5734375 85.35117187 24.75 85.4375 C23.96109375 85.51871094 23.1721875 85.59992188 22.359375 85.68359375 C20.04162017 85.9439872 20.04162017 85.9439872 18 86.53125 C15.69148744 87.07230763 13.61795922 87.09732293 11.25 87.0625 C10.45078125 87.05347656 9.6515625 87.04445313 8.828125 87.03515625 C8.22484375 87.02355469 7.6215625 87.01195312 7 87 C6.46375 86.030625 5.9275 85.06125 5.375 84.0625 C2.80645577 79.55837423 -0.09094452 75.28877894 -3 71 C-5 68 -5 68 -5.4375 64.625 C-5.74680907 61.07080449 -5.74680907 61.07080449 -7.4375 58.6875 C-9.41905055 55.27923305 -9.86429548 52.07157063 -10.47265625 48.20703125 C-10.84212978 45.80892481 -10.84212978 45.80892481 -13 44 C-13 42.68 -13 41.36 -13 40 C-16.96 40 -20.92 40 -25 40 C-24.03320312 38.97326172 -24.03320312 38.97326172 -23.046875 37.92578125 C-20.61828098 34.45437492 -20.41937308 32.3794837 -20.25 28.1875 C-20.19328125 27.02605469 -20.1365625 25.86460937 -20.078125 24.66796875 C-20.05234375 23.78753906 -20.0265625 22.90710938 -20 22 C-24.16317982 21.91462772 -24.16317982 21.91462772 -28.25 22.5625 C-30 23 -30 23 -32 22 C-32 21.34 -32 20.68 -32 20 C-30.68 20.33 -29.36 20.66 -28 21 C-28 20.34 -28 19.68 -28 19 C-25.36 19.33 -22.72 19.66 -20 20 C-19.896875 19.278125 -19.79375 18.55625 -19.6875 17.8125 C-18.93206053 14.72206579 -17.84468685 12.58256159 -16 10 C-15.34 10 -14.68 10 -14 10 C-15.2491742 6.54074837 -16.67527795 3.85306797 -19 1 C-18.4225 1.33 -17.845 1.66 -17.25 2 C-14.80116138 3.27075898 -14.80116138 3.27075898 -11 3 C-10.21625 2.505 -9.4325 2.01 -8.625 1.5 C-5.51671244 -0.27616432 -3.52217994 -0.24573348 0 0 Z " fill="#121212" transform="translate(140,248)"/>
	<path d="M0 0 C3.29859379 1.03670091 4.98962473 1.9893587 7.4375 4.5 C10.22408708 7.21862154 12.27297604 8.04657527 16 9 C16.495 11.97 16.495 11.97 17 15 C15.35 15.33 13.7 15.66 12 16 C13.24976756 19.65316671 13.67098753 20.78065836 17 23 C17.763125 22.979375 18.52625 22.95875 19.3125 22.9375 C22.78856637 23.01833875 24.99872667 24.3248707 28 26 C27.67 28.31 27.34 30.62 27 33 C30.3 33.66 33.6 34.32 37 35 C35.515 35.495 35.515 35.495 34 36 C34 37.32 34 38.64 34 40 C34.99 40 35.98 40 37 40 C36.41196203 43.02419525 35.77321882 46.01758453 35 49 C33.35 49 31.7 49 30 49 C29.34 51.31 28.68 53.62 28 56 C26.35 56 24.7 56 23 56 C22.34 54.68 21.68 53.36 21 52 C20.21625 52.185625 19.4325 52.37125 18.625 52.5625 C16 53 16 53 14 52 C14 53.65 14 55.3 14 57 C15.32 57.33 16.64 57.66 18 58 C18.02700675 60.91672884 18.04684237 63.83320677 18.0625 66.75 C18.07087891 67.575 18.07925781 68.4 18.08789062 69.25 C18.09111328 70.04921875 18.09433594 70.8484375 18.09765625 71.671875 C18.10289307 72.4050293 18.10812988 73.13818359 18.11352539 73.89355469 C18 76 18 76 17 80 C20.63 79.67 24.26 79.34 28 79 C28 84.94 28 90.88 28 97 C30.31 97.33 32.62 97.66 35 98 C35 98.66 35 99.32 35 100 C35.7425 100.2475 36.485 100.495 37.25 100.75 C40.21630245 102.0983193 41.79397794 103.64183849 44 106 C44.66 106.33 45.32 106.66 46 107 C45.505 108.485 45.505 108.485 45 110 C42.36 110 39.72 110 37 110 C37.020625 111.03125 37.04125 112.0625 37.0625 113.125 C37.00711141 116.55909244 36.60578948 119.63238288 36 123 C36.88042969 122.98839844 37.76085937 122.97679687 38.66796875 122.96484375 C40.41013672 122.95130859 40.41013672 122.95130859 42.1875 122.9375 C43.33605469 122.92589844 44.48460937 122.91429687 45.66796875 122.90234375 C49 123 49 123 51.78125 123.5625 C54.53735469 124.10595726 55.66891914 123.46771758 58 122 C56.54643338 125.75504711 56.54643338 125.75504711 54.1875 126.8125 C51.59755375 127.03449539 49.53888735 126.54404729 47 126 C45.0003559 125.96227087 42.99945939 125.95350094 41 126 C41 125.34 41 124.68 41 124 C39.02 124 37.04 124 35 124 C33.31580904 120.81875042 32.87166602 119.48372038 33.8125 115.9375 C34.204375 114.968125 34.59625 113.99875 35 113 C35.103125 112.2575 35.20625 111.515 35.3125 110.75 C36 109 36 109 38.5625 107.75 C39.366875 107.5025 40.17125 107.255 41 107 C37.48946745 101.64181874 32.99469566 99.81234985 27 98 C26.25983299 92.29014022 25.89530662 86.75813575 26 81 C24.906875 81.185625 23.81375 81.37125 22.6875 81.5625 C19 82 19 82 16 81 C16 80.34 16 79.68 16 79 C14.9275 79.165 13.855 79.33 12.75 79.5 C9 80 9 80 5 80 C5 79.34 5 78.68 5 78 C3.14375 78.495 3.14375 78.495 1.25 79 C-1.74591845 79.79891159 -3.80107719 80 -7 80 C-7.33 78.68 -7.66 77.36 -8 76 C-9.65 76 -11.3 76 -13 76 C-12.67 76.99 -12.34 77.98 -12 79 C-13.485 79.99 -13.485 79.99 -15 81 C-14.855625 80.175 -14.71125 79.35 -14.5625 78.5 C-13.94864518 74.68045892 -13.4798351 70.83868077 -13 67 C-20.92 67 -28.84 67 -37 67 C-37 66.67 -37 66.34 -37 66 C-29.08 66 -21.16 66 -13 66 C-14.32 65.01 -15.64 64.02 -17 63 C-17 62.34 -17 61.68 -17 61 C-18.32 60.34 -19.64 59.68 -21 59 C-20.43628586 55.73045798 -19.50037734 54.17424117 -17 52 C-17.66 52 -18.32 52 -19 52 C-18.93981983 49.74926172 -18.85098794 47.49927675 -18.75 45.25 C-18.70359375 43.99703125 -18.6571875 42.7440625 -18.609375 41.453125 C-17.92389201 37.56872141 -17.16460148 36.28682881 -14 34 C-13.01 34 -12.02 34 -11 34 C-11 32.68 -11 31.36 -11 30 C-11.804375 29.690625 -12.60875 29.38125 -13.4375 29.0625 C-16 28 -16 28 -17 27 C-17.23529412 21.47058824 -17.23529412 21.47058824 -16 19 C-9.25 18.875 -9.25 18.875 -7 20 C-7.226875 19.236875 -7.45375 18.47375 -7.6875 17.6875 C-7.790625 16.800625 -7.89375 15.91375 -8 15 C-6.625 13.3125 -6.625 13.3125 -5 12 C-4.67 11.34 -4.34 10.68 -4 10 C-2.68 10 -1.36 10 0 10 C0.2784375 8.081875 0.2784375 8.081875 0.5625 6.125 C0.66691406 5.40570313 0.77132812 4.68640625 0.87890625 3.9453125 C1.1684297 1.91859333 1.1684297 1.91859333 0 0 Z " fill="#161616" transform="translate(250,251)"/>
	<path d="M0 0 C0.66 0 1.32 0 2 0 C7 5.23809524 7 5.23809524 7 10 C9.31 9.01 11.62 8.02 14 7 C14.495 7.99 14.495 7.99 15 9 C17.02463255 9.65213292 17.02463255 9.65213292 19 10 C19 9.34 19 8.68 19 8 C20.010625 7.7525 21.02125 7.505 22.0625 7.25 C24.87550438 6.46734959 27.09498335 5.42821361 29.5625 3.875 C33.14389771 1.92151034 35.00445662 1.61019089 39 2 C38.5359375 2.9590625 38.5359375 2.9590625 38.0625 3.9375 C37.0958705 6.72366738 36.81892699 8.72555503 36.625 11.625 C36.25503356 15.77684564 36.25503356 15.77684564 34 17.75 C33.34 18.1625 32.68 18.575 32 19 C31.1957792 21.59855733 31.1957792 21.59855733 31 24 C32.485 24.495 32.485 24.495 34 25 C35.625 27.5 35.625 27.5 37 30 C37.33 30.33 37.66 30.66 38 31 C38.13223768 32.37891723 38.20315998 33.7638595 38.24609375 35.1484375 C38.27896484 35.98890625 38.31183594 36.829375 38.34570312 37.6953125 C38.40662927 39.47383755 38.46395374 41.25248982 38.51757812 43.03125 C38.55173828 43.87429687 38.58589844 44.71734375 38.62109375 45.5859375 C38.6461499 46.3598584 38.67120605 47.1337793 38.69702148 47.93115234 C38.89377029 50.30462525 38.89377029 50.30462525 41 53 C42.53729842 60.64638864 41.51509776 67.42451121 40 75 C18.55 75.33 -2.9 75.66 -25 76 C-25.96088383 78.88265149 -26.11670941 80.67662271 -26.09765625 83.66796875 C-26.09443359 84.56064453 -26.09121094 85.45332031 -26.08789062 86.37304688 C-26.07951172 87.30181641 -26.07113281 88.23058594 -26.0625 89.1875 C-26.05798828 90.12787109 -26.05347656 91.06824219 -26.04882812 92.03710938 C-26.03704626 94.35813712 -26.02059558 96.67903644 -26 99 C-26.33 99 -26.66 99 -27 99 C-30.26659168 81.53318335 -30.26659168 81.53318335 -27 75 C-27.68626465 75.00523682 -28.3725293 75.01047363 -29.07958984 75.01586914 C-32.17805064 75.03660956 -35.27649686 75.04965076 -38.375 75.0625 C-39.45523438 75.07087891 -40.53546875 75.07925781 -41.6484375 75.08789062 C-42.6796875 75.09111328 -43.7109375 75.09433594 -44.7734375 75.09765625 C-45.72653809 75.10289307 -46.67963867 75.10812988 -47.66162109 75.11352539 C-50 75 -50 75 -52 74 C-52 73.01 -52 72.02 -52 71 C-53.423125 71.99 -53.423125 71.99 -54.875 73 C-58 75 -58 75 -60 75 C-60 76.98 -60 78.96 -60 81 C-62.74160552 82.25330538 -64.64514865 83.00825236 -67.6875 82.9375 C-68.450625 82.958125 -69.21375 82.97875 -70 83 C-70.66 83.99 -71.32 84.98 -72 86 C-72 84.35 -72 82.7 -72 81 C-68.7 81 -65.4 81 -62 81 C-61.95875 79.9275 -61.9175 78.855 -61.875 77.75 C-60.75352551 72.94368076 -58.97436967 72.62139276 -55 70 C-54.66659529 66.95804573 -54.66659529 66.95804573 -55 64 C-54.34 63.01 -53.68 62.02 -53 61 C-53.32256778 56.645335 -54.19528583 52.97037118 -56 49 C-51.06954282 53.77141017 -51.06954282 53.77141017 -50.8125 58.3125 C-51 62 -51 62 -52.1875 64.625 C-53.29925178 67.04961448 -53.29925178 67.04961448 -52.00810242 69.61296082 C-50.15700075 72.32634438 -50.15700075 72.32634438 -46.75398254 72.60127258 C-45.39697318 72.61576476 -44.03950064 72.60247264 -42.68286133 72.56762695 C-41.57029716 72.56872215 -41.57029716 72.56872215 -40.43525696 72.56983948 C-37.98343787 72.5663557 -35.53351838 72.52746119 -33.08203125 72.48828125 C-31.38239073 72.47895584 -29.68273677 72.47183844 -27.983078 72.46684265 C-23.50943904 72.4477512 -19.03661171 72.39863257 -14.56329346 72.34332275 C-9.99868755 72.29217616 -5.43395049 72.26933847 -0.86914062 72.24414062 C8.0875962 72.19051538 17.04373061 72.10517708 26 72 C25.06915029 70.22566188 24.13005387 68.45564851 23.1875 66.6875 C22.66542969 65.70136719 22.14335937 64.71523438 21.60546875 63.69921875 C20.21134193 61.35532184 19.14727493 59.65519109 17 58 C13.87450983 57.74951364 13.87450983 57.74951364 11 58 C11 57.34 11 56.68 11 56 C9.02 55.505 9.02 55.505 7 55 C7 54.34 7 53.68 7 53 C5.824375 53.061875 4.64875 53.12375 3.4375 53.1875 C-1.03960301 53.21144173 -4.0241888 51.9879056 -8 50 C-8.06058594 49.32453125 -8.12117188 48.6490625 -8.18359375 47.953125 C-8.26738281 47.06109375 -8.35117187 46.1690625 -8.4375 45.25 C-8.51871094 44.36828125 -8.59992188 43.4865625 -8.68359375 42.578125 C-8.96264934 40.3043387 -9.44259425 38.21533054 -10 36 C-9.95875 35.236875 -9.9175 34.47375 -9.875 33.6875 C-10.04440471 30.04529863 -11.56221266 27.33566663 -13 24 C-13.80598384 20.03724613 -14.38868749 16.85746526 -13 13 C-9.50765756 12.90021879 -6.40562852 13.22157062 -3 14 C-2.67 12.68 -2.34 11.36 -2 10 C0.64 10 3.28 10 6 10 C4.19587357 6.73539027 3.16605307 5.11070205 0 3 C0 2.01 0 1.02 0 0 Z " fill="#131313" transform="translate(356,196)"/>
	<path d="M0 0 C0.495 1.98 0.495 1.98 1 4 C2.1446875 3.9071875 2.1446875 3.9071875 3.3125 3.8125 C6 4 6 4 7.875 5.125 C9.90521588 8.50869314 8.2609717 11.93001604 7.375 15.5625 C6.84417935 18.01157525 6.84417935 18.01157525 7.5625 20.4375 C8.13049871 23.76434959 7.22364937 25.90488689 6 29 C7.98 29.66 9.96 30.32 12 31 C12 31.66 12 32.32 12 33 C13.98 33.495 13.98 33.495 16 34 C16.33009433 37.17785729 16.26930446 38.60974243 14.42578125 41.28125 C13.72839844 42.0134375 13.03101563 42.745625 12.3125 43.5 C11.21615234 44.66402344 11.21615234 44.66402344 10.09765625 45.8515625 C9.40542969 46.56054688 8.71320313 47.26953125 8 48 C7.0925 48.94875 6.185 49.8975 5.25 50.875 C2.61939084 53.35946421 0.2384003 55.49007047 -3.125 56.875 C-5.26474767 57.89172762 -5.26474767 57.89172762 -5.9375 60.5625 C-6.4634375 61.7690625 -6.4634375 61.7690625 -7 63 C-9.625 63.8125 -9.625 63.8125 -12 64 C-12.0825 64.61875 -12.165 65.2375 -12.25 65.875 C-13 68 -13 68 -15.0625 69.25 C-15.701875 69.4975 -16.34125 69.745 -17 70 C-17.99 69.01 -18.98 68.02 -20 67 C-19.505 65.515 -19.505 65.515 -19 64 C-20.32 64 -21.64 64 -23 64 C-23.40734375 64.63035156 -23.8146875 65.26070313 -24.234375 65.91015625 C-26.9402428 69.11289801 -30.29854944 69.04235494 -34.25 69.4375 C-34.98863281 69.53998047 -35.72726562 69.64246094 -36.48828125 69.74804688 C-41.89049084 70.35305624 -45.18249966 69.5043355 -50 67 C-49.98428955 67.59014893 -49.9685791 68.18029785 -49.95239258 68.78833008 C-49.89002061 71.46295586 -49.85100343 74.13742864 -49.8125 76.8125 C-49.78736328 77.74126953 -49.76222656 78.67003906 -49.73632812 79.62695312 C-49.72666016 80.51962891 -49.71699219 81.41230469 -49.70703125 82.33203125 C-49.6913208 83.15421143 -49.67561035 83.9763916 -49.65942383 84.82348633 C-50.08083483 87.51658964 -51.01880233 88.20924789 -53 90 C-53.33 90.99 -53.66 91.98 -54 93 C-54.33 93 -54.66 93 -55 93 C-55.1875 90.625 -55.1875 90.625 -55 88 C-53.515 87.01 -53.515 87.01 -52 86 C-52.22760307 83.70600066 -52.48278879 81.41472363 -52.75 79.125 C-52.88921875 77.84882813 -53.0284375 76.57265625 -53.171875 75.2578125 C-53.64400014 71.91099877 -53.64400014 71.91099877 -56.078125 70.5546875 C-57.02945312 70.28011719 -57.02945312 70.28011719 -58 70 C-57.505 69.01 -57.505 69.01 -57 68 C-56.34 68 -55.68 68 -55 68 C-55.28151087 66.68528432 -55.57553339 65.37324233 -55.875 64.0625 C-56.03742188 63.33160156 -56.19984375 62.60070312 -56.3671875 61.84765625 C-56.82961523 59.79299706 -56.82961523 59.79299706 -59 59 C-59.103125 58.195625 -59.20625 57.39125 -59.3125 56.5625 C-59.539375 55.716875 -59.76625 54.87125 -60 54 C-62.37625345 52.81608777 -62.37625345 52.81608777 -65 52 C-66.6875 50.4375 -66.6875 50.4375 -68 49 C-68.66 48.67 -69.32 48.34 -70 48 C-69.34 45.03 -68.68 42.06 -68 39 C-68.66 38.67 -69.32 38.34 -70 38 C-68.68 38.33 -67.36 38.66 -66 39 C-66.875 44.75 -66.875 44.75 -68 47 C-66.35 47 -64.7 47 -63 47 C-63 45.35 -63 43.7 -63 42 C-60.66705225 41.95758277 -58.33297433 41.95907063 -56 42 C-55.67 42.33 -55.34 42.66 -55 43 C-53.33382885 43.04063832 -51.66611905 43.042721 -50 43 C-48.85185003 40.70370006 -48.69230191 38.92301914 -48.4375 36.375 C-48.31181641 35.14910156 -48.31181641 35.14910156 -48.18359375 33.8984375 C-48.12300781 33.27195313 -48.06242187 32.64546875 -48 32 C-46.41773035 31.80372609 -44.83410729 31.61834462 -43.25 31.4375 C-42.36828125 31.33308594 -41.4865625 31.22867188 -40.578125 31.12109375 C-38.11567549 31.00543324 -36.33461936 31.26361305 -34 32 C-33.505 30.515 -33.505 30.515 -33 29 C-31.68 29 -30.36 29 -29 29 C-29 28.34 -29 27.68 -29 27 C-28.0925 27.165 -27.185 27.33 -26.25 27.5 C-22.88912497 28.10137146 -22.88912497 28.10137146 -19 28 C-18.505 30.475 -18.505 30.475 -18 33 C-15.6704053 33.50241322 -15.6704053 33.50241322 -13 33 C-9.20649955 29.20649955 -8.75687024 26.4494336 -8.75 21.125 C-8.81380916 19.41582604 -8.89066337 17.70686635 -9 16 C-8.01 15.67 -7.02 15.34 -6 15 C-5.19436362 12.89415562 -5.19436362 12.89415562 -4.8125 10.4375 C-4.65394531 9.61121094 -4.49539063 8.78492187 -4.33203125 7.93359375 C-4.22246094 7.29550781 -4.11289062 6.65742187 -4 6 C-2.68 5.67 -1.36 5.34 0 5 C0 3.35 0 1.7 0 0 Z " fill="#141414" transform="translate(421,84)"/>
	<path d="M0 0 C3.6875 0.875 3.6875 0.875 7 2 C6.48041715 6.37934119 5.94324258 10.68803391 5 15 C5.515625 14.835 6.03125 14.67 6.5625 14.5 C9.80842738 13.83416874 12.69543832 13.75966824 16 14 C17.75 15.4375 17.75 15.4375 19 17 C19.99 17.33 20.98 17.66 22 18 C22.39271606 20.20525173 22.76343631 22.41442704 23.125 24.625 C23.33382812 25.85476562 23.54265625 27.08453125 23.7578125 28.3515625 C24.01292858 32.19476273 23.37319356 34.45004034 22 38 C22 38.99 22 39.98 22 41 C27.69291148 39.6760671 29.59589126 37.47397148 33 33 C33.33 33 33.66 33 34 33 C35.29461201 37.31537335 36.4655204 41.51037132 37 46 C35.25040671 47.74959329 32.62715497 47.16882885 30.25 47.25 C25.93430266 47.56778294 24.39790182 47.69759461 20.875 50.375 C19.55161013 52.22774581 18.26296693 54.1055496 17 56 C12.82339427 56.26518132 9.95659266 56.31886422 6 55 C2.06542796 54.70305117 -0.29482966 54.601166 -3.76953125 56.56640625 C-7.80355149 58.35659419 -10.07058148 57.95904672 -14.375 57.1875 C-15.62023437 56.97480469 -16.86546875 56.76210937 -18.1484375 56.54296875 C-19.08945313 56.36378906 -20.03046875 56.18460938 -21 56 C-21.30164731 51.43594498 -20.88480572 49.14452813 -18.125 45.5 C-15.66142243 42.06487071 -14.16998865 39.09496027 -13 35 C-12.34 34.01 -11.68 33.02 -11 32 C-10.70929488 29.84169382 -10.70929488 29.84169382 -10.76953125 27.47265625 C-10.77146484 26.59802734 -10.77339844 25.72339844 -10.77539062 24.82226562 C-10.78763672 23.91154297 -10.79988281 23.00082031 -10.8125 22.0625 C-10.81314453 21.15564453 -10.81378906 20.24878906 -10.81445312 19.31445312 C-10.84063246 15.3613742 -10.90544428 11.82084564 -12 8 C-8 5.33333333 -4 2.66666667 0 0 Z " fill="#101010" transform="translate(180,66)"/>
	<path d="M0 0 C4.93045718 4.77141017 4.93045718 4.77141017 5.1875 9.3125 C5 13 5 13 3.8125 15.625 C2.70074822 18.04961448 2.70074822 18.04961448 3.99189758 20.61296082 C5.84299925 23.32634438 5.84299925 23.32634438 9.24601746 23.60127258 C10.60302682 23.61576476 11.96049936 23.60247264 13.31713867 23.56762695 C14.42970284 23.56872215 14.42970284 23.56872215 15.56474304 23.56983948 C18.01656213 23.5663557 20.46648162 23.52746119 22.91796875 23.48828125 C24.61760927 23.47895584 26.31726323 23.47183844 28.016922 23.46684265 C32.49056096 23.4477512 36.96338829 23.39863257 41.43670654 23.34332275 C46.00131245 23.29217616 50.56604951 23.26933847 55.13085938 23.24414062 C64.0875962 23.19051538 73.04373061 23.10517708 82 23 C81.06915029 21.22566188 80.13005387 19.45564851 79.1875 17.6875 C78.66542969 16.70136719 78.14335937 15.71523438 77.60546875 14.69921875 C76.21134193 12.35532184 75.14727493 10.65519109 73 9 C69.87450983 8.74951364 69.87450983 8.74951364 67 9 C67 8.34 67 7.68 67 7 C65.68 6.67 64.36 6.34 63 6 C63 5.34 63 4.68 63 4 C61.783125 4.04125 60.56625 4.0825 59.3125 4.125 C55.78105873 4.13754508 53.19996434 3.59998217 50 2 C53.40401948 0.86267574 55.77456664 1.16010043 59.25 1.9375 C60.58804688 2.22947266 60.58804688 2.22947266 61.953125 2.52734375 C62.62859375 2.68332031 63.3040625 2.83929688 64 3 C64 3.66 64 4.32 64 5 C65.32 5 66.64 5 68 5 C68 5.66 68 6.32 68 7 C70.475 6.505 70.475 6.505 73 6 C84 17.61797753 84 17.61797753 84 24 C87.96 24 91.92 24 96 24 C96.495 22.515 96.495 22.515 97 21 C96.505 23.475 96.505 23.475 96 26 C74.55 26.33 53.1 26.66 31 27 C30.03911617 29.88265149 29.88329059 31.67662271 29.90234375 34.66796875 C29.90556641 35.56064453 29.90878906 36.45332031 29.91210938 37.37304688 C29.92048828 38.30181641 29.92886719 39.23058594 29.9375 40.1875 C29.94201172 41.12787109 29.94652344 42.06824219 29.95117188 43.03710938 C29.96295374 45.35813712 29.97940442 47.67903644 30 50 C29.67 50 29.34 50 29 50 C25.73340832 32.53318335 25.73340832 32.53318335 29 26 C28.31373535 26.00523682 27.6274707 26.01047363 26.92041016 26.01586914 C23.82194936 26.03660956 20.72350314 26.04965076 17.625 26.0625 C16.54476562 26.07087891 15.46453125 26.07925781 14.3515625 26.08789062 C12.8046875 26.09272461 12.8046875 26.09272461 11.2265625 26.09765625 C10.27346191 26.10289307 9.32036133 26.10812988 8.33837891 26.11352539 C6 26 6 26 4 25 C4 24.01 4 23.02 4 22 C2.576875 22.99 2.576875 22.99 1.125 24 C-2 26 -2 26 -4 26 C-4 27.98 -4 29.96 -4 32 C-6.74160552 33.25330538 -8.64514865 34.00825236 -11.6875 33.9375 C-12.450625 33.958125 -13.21375 33.97875 -14 34 C-14.66 34.99 -15.32 35.98 -16 37 C-16 35.35 -16 33.7 -16 32 C-12.7 32 -9.4 32 -6 32 C-5.95875 30.9275 -5.9175 29.855 -5.875 28.75 C-4.75352551 23.94368076 -2.97436967 23.62139276 1 21 C1.33340471 17.95804573 1.33340471 17.95804573 1 15 C1.66 14.01 2.32 13.02 3 12 C2.67743222 7.645335 1.80471417 3.97037118 0 0 Z " fill="#696969" transform="translate(300,245)"/>
	<path d="M0 0 C1.10504883 0.00580078 1.10504883 0.00580078 2.23242188 0.01171875 C2.95751953 0.00785156 3.68261719 0.00398438 4.4296875 0 C7.89440828 0.00633984 11.11010957 0.04213515 14.41992188 1.13671875 C14.41992188 2.78671875 14.41992188 4.43671875 14.41992188 6.13671875 C15.40992188 6.46671875 16.39992188 6.79671875 17.41992188 7.13671875 C17.08992188 7.79671875 16.75992187 8.45671875 16.41992188 9.13671875 C15.75992187 9.13671875 15.09992188 9.13671875 14.41992188 9.13671875 C14.41992188 10.12671875 14.41992188 11.11671875 14.41992188 12.13671875 C13.09992188 12.46671875 11.77992188 12.79671875 10.41992188 13.13671875 C9.75992187 15.44671875 9.09992188 17.75671875 8.41992188 20.13671875 C7.09992188 20.13671875 5.77992188 20.13671875 4.41992188 20.13671875 C4.08992188 18.48671875 3.75992187 16.83671875 3.41992188 15.13671875 C1.43992187 15.46671875 -0.54007812 15.79671875 -2.58007812 16.13671875 C-3.25764695 14.57891543 -3.92167269 13.01521779 -4.58007812 11.44921875 C-4.95132812 10.57910156 -5.32257813 9.70898438 -5.70507812 8.8125 C-6.60488544 6.0608571 -6.82161078 4.0099509 -6.58007812 1.13671875 C-4.78676826 -0.65659111 -2.38426919 0.00438688 0 0 Z " fill="#0E0E0E" transform="translate(268.580078125,285.86328125)"/>
	<path d="M0 0 C3.15422611 1.47197219 5.87808125 3.20800165 8 6 C8 7.32 8 8.64 8 10 C7 11 6 12 5 13 C3.8595593 15.29115564 2.94429462 17.61678025 2 20 C-3.75 20.125 -3.75 20.125 -6 19 C-6 19.66 -6 20.32 -6 21 C-7.32 20.34 -8.64 19.68 -10 19 C-9.34 19 -8.68 19 -8 19 C-8.56739868 14.87026372 -8.56739868 14.87026372 -10 11 C-11.97888961 10.27306096 -13.97954558 9.60183749 -16 9 C-13.48305386 1.44916158 -7.44463641 -1.08067303 0 0 Z " fill="#0B0B0B" transform="translate(118,248)"/>
	<path d="M0 0 C1.32 0 2.64 0 4 0 C4.268125 0.804375 4.53625 1.60875 4.8125 2.4375 C5.204375 3.283125 5.59625 4.12875 6 5 C6.99 5.33 7.98 5.66 9 6 C9 5.34 9 4.68 9 4 C10.32 4.33 11.64 4.66 13 5 C13.33 4.01 13.66 3.02 14 2 C17.98552174 1.68741006 20.41761211 1.69667298 24 3.5625 C26 6 26 6 25.8125 9.75 C25.544375 10.8225 25.27625 11.895 25 13 C30.445 13.495 30.445 13.495 36 14 C36 14.33 36 14.66 36 15 C20.25512528 17.29612756 20.25512528 17.29612756 13 17 C13.33 15.68 13.66 14.36 14 13 C11.525 12.505 11.525 12.505 9 12 C8.67 11.01 8.34 10.02 8 9 C7.360625 8.525625 6.72125 8.05125 6.0625 7.5625 C3.83336183 5.87375896 3.0554819 4.55074793 2 2 C2 2.99 2 3.98 2 5 C1.5107153 8.81642066 0.69534082 11.20839701 -2 14 C-5.36554823 15.72592217 -7.12819409 16 -11 16 C-11.33 15.01 -11.66 14.02 -12 13 C-11.46375 13.226875 -10.9275 13.45375 -10.375 13.6875 C-6.76363152 14.16268006 -4.95080113 13.03277411 -2 11 C-0.96142125 7.51334276 -1 4.64894497 -1 1 C-0.67 0.67 -0.34 0.34 0 0 Z " fill="#141414" transform="translate(377,325)"/>
	<path d="M0 0 C3 4 3 4 3 8 C4.98 7.67 6.96 7.34 9 7 C9.33 8.65 9.66 10.3 10 12 C9.34 11.67 8.68 11.34 8 11 C8 10.34 8 9.68 8 9 C7.21625 9.185625 6.4325 9.37125 5.625 9.5625 C3 10 3 10 1 9 C1 10.65 1 12.3 1 14 C2.98 14.495 2.98 14.495 5 15 C5.02700675 17.91672884 5.04684237 20.83320677 5.0625 23.75 C5.07087891 24.575 5.07925781 25.4 5.08789062 26.25 C5.09111328 27.04921875 5.09433594 27.8484375 5.09765625 28.671875 C5.10289307 29.4050293 5.10812988 30.13818359 5.11352539 30.89355469 C5 33 5 33 4 37 C9.445 36.505 9.445 36.505 15 36 C15 41.94 15 47.88 15 54 C18.465 54.495 18.465 54.495 22 55 C22 55.66 22 56.32 22 57 C22.7425 57.2475 23.485 57.495 24.25 57.75 C27.21630245 59.0983193 28.79397794 60.64183849 31 63 C31.66 63.33 32.32 63.66 33 64 C32.505 65.485 32.505 65.485 32 67 C29.36 67 26.72 67 24 67 C24.020625 68.03125 24.04125 69.0625 24.0625 70.125 C24.00711141 73.55909244 23.60578948 76.63238288 23 80 C23.88042969 79.98839844 24.76085937 79.97679687 25.66796875 79.96484375 C27.41013672 79.95130859 27.41013672 79.95130859 29.1875 79.9375 C30.33605469 79.92589844 31.48460937 79.91429687 32.66796875 79.90234375 C36 80 36 80 38.78125 80.5625 C41.53735469 81.10595726 42.66891914 80.46771758 45 79 C43.54643338 82.75504711 43.54643338 82.75504711 41.1875 83.8125 C38.59755375 84.03449539 36.53888735 83.54404729 34 83 C32.0003559 82.96227087 29.99945939 82.95350094 28 83 C28 82.34 28 81.68 28 81 C26.02 81 24.04 81 22 81 C20.31580904 77.81875042 19.87166602 76.48372038 20.8125 72.9375 C21.204375 71.968125 21.59625 70.99875 22 70 C22.103125 69.2575 22.20625 68.515 22.3125 67.75 C23 66 23 66 25.5625 64.75 C26.366875 64.5025 27.17125 64.255 28 64 C24.48946745 58.64181874 19.99469566 56.81234985 14 55 C13.25983299 49.29014022 12.89530662 43.75813575 13 38 C11.906875 38.185625 10.81375 38.37125 9.6875 38.5625 C6 39 6 39 3 38 C3 37.34 3 36.68 3 36 C2.01 36 1.02 36 0 36 C0 35.34 0 34.68 0 34 C0.99 33.505 0.99 33.505 2 33 C3.08836961 29.95936739 3.07728594 27.14003607 3 23.9375 C2.9254869 20.84054943 3.00691998 18.97924005 4 16 C2.68 15.67 1.36 15.34 0 15 C0 10.05 0 5.1 0 0 Z " fill="#5D5D5D" transform="translate(263,294)"/>
	<path d="M0 0 C1.32 0.33 2.64 0.66 4 1 C0.93882432 3.62386487 0.26826873 4 -4 4 C-4 4.66 -4 5.32 -4 6 C-6.97 5.67 -9.94 5.34 -13 5 C-13.103125 6.2375 -13.20625 7.475 -13.3125 8.75 C-13.6485197 12.78223642 -14.29426789 13.39235718 -17 17 C-20.96 16.01 -24.92 15.02 -29 14 C-26.36893239 16.94729537 -26.36893239 16.94729537 -24 18 C-24.33 19.32 -24.66 20.64 -25 22 C-26.65 22.33 -28.3 22.66 -30 23 C-28.35 23.33 -26.7 23.66 -25 24 C-25 25.65 -25 27.3 -25 29 C-24.01 29 -23.02 29 -22 29 C-21.66430703 30.62451419 -21.3315204 32.24962917 -21 33.875 C-20.814375 34.77992188 -20.62875 35.68484375 -20.4375 36.6171875 C-20 39 -20 39 -20 41 C-19.505 41.804375 -19.01 42.60875 -18.5 43.4375 C-16.48683071 48.21877706 -16.1782744 52.86824309 -17 58 C-18.4609375 59.64453125 -18.4609375 59.64453125 -20 61 C-20.33 61.99 -20.66 62.98 -21 64 C-21.33 64 -21.66 64 -22 64 C-22.1875 61.625 -22.1875 61.625 -22 59 C-21.01 58.34 -20.02 57.68 -19 57 C-19.22760307 54.70600066 -19.48278879 52.41472363 -19.75 50.125 C-19.88921875 48.84882813 -20.0284375 47.57265625 -20.171875 46.2578125 C-20.64400014 42.91099877 -20.64400014 42.91099877 -23.078125 41.5546875 C-23.71234375 41.37164062 -24.3465625 41.18859375 -25 41 C-24.67 40.34 -24.34 39.68 -24 39 C-23.34 39 -22.68 39 -22 39 C-22.28151087 37.68528432 -22.57553339 36.37324233 -22.875 35.0625 C-23.03742188 34.33160156 -23.19984375 33.60070312 -23.3671875 32.84765625 C-23.82961523 30.79299706 -23.82961523 30.79299706 -26 30 C-26.103125 29.195625 -26.20625 28.39125 -26.3125 27.5625 C-26.539375 26.716875 -26.76625 25.87125 -27 25 C-29.37625345 23.81608777 -29.37625345 23.81608777 -32 23 C-33.6875 21.4375 -33.6875 21.4375 -35 20 C-35.66 19.67 -36.32 19.34 -37 19 C-36.34 16.03 -35.68 13.06 -35 10 C-35.66 9.67 -36.32 9.34 -37 9 C-35.68 9.33 -34.36 9.66 -33 10 C-33.875 15.75 -33.875 15.75 -35 18 C-33.35 18 -31.7 18 -30 18 C-30 16.35 -30 14.7 -30 13 C-27.66705225 12.95758277 -25.33297433 12.95907063 -23 13 C-22.67 13.33 -22.34 13.66 -22 14 C-20.33382885 14.04063832 -18.66611905 14.042721 -17 14 C-15.85185003 11.70370006 -15.69230191 9.92301914 -15.4375 7.375 C-15.35371094 6.55773437 -15.26992188 5.74046875 -15.18359375 4.8984375 C-15.09271484 3.95871094 -15.09271484 3.95871094 -15 3 C-13.41773035 2.80372609 -11.83410729 2.61834462 -10.25 2.4375 C-9.36828125 2.33308594 -8.4865625 2.22867188 -7.578125 2.12109375 C-5.11567549 2.00543324 -3.33461936 2.26361305 -1 3 C-0.67 2.01 -0.34 1.02 0 0 Z " fill="#747474" transform="translate(388,113)"/>
	<path d="M0 0 C3.81684226 1.55500981 6.19195732 4.03595495 9 7 C10.051875 6.649375 11.10375 6.29875 12.1875 5.9375 C15.7954681 5.05029473 17.52632489 4.94737118 21 6 C20.44828125 6.13277344 19.8965625 6.26554688 19.328125 6.40234375 C16.77949398 7.05660641 14.26840657 7.80035064 11.75 8.5625 C10.1825 9.036875 8.615 9.51125 7 10 C6.34 13.3 5.68 16.6 5 20 C4.01 20.33 3.02 20.66 2 21 C1.67 24.63 1.34 28.26 1 32 C-0.32 32 -1.64 32 -3 32 C-3 34.31 -3 36.62 -3 39 C-4.98 39.495 -4.98 39.495 -7 40 C-6.01 39.505 -6.01 39.505 -5 39 C-4.53348793 36.87423218 -4.53348793 36.87423218 -4.375 34.4375 C-4.30023438 33.61121094 -4.22546875 32.78492188 -4.1484375 31.93359375 C-4.09945313 31.29550781 -4.05046875 30.65742188 -4 30 C-3.01 30 -2.02 30 -1 30 C-0.96261719 29.37351563 -0.92523438 28.74703125 -0.88671875 28.1015625 C-0.82097656 27.28429687 -0.75523437 26.46703125 -0.6875 25.625 C-0.62949219 24.81289062 -0.57148438 24.00078125 -0.51171875 23.1640625 C0 21 0 21 3 19 C3.36853269 14.4301946 3.61290872 10.91936308 1 7 C-1 4 -1 4 -0.625 1.8125 C-0.41875 1.214375 -0.2125 0.61625 0 0 Z " fill="#505050" transform="translate(326,164)"/>
	<path d="M0 0 C1.63001953 0.02707031 1.63001953 0.02707031 3.29296875 0.0546875 C4.54013672 0.08949219 4.54013672 0.08949219 5.8125 0.125 C3.8125 2.125 3.8125 2.125 1.45703125 2.1875 C0.05517578 2.1565625 0.05517578 2.1565625 -1.375 2.125 C-5.03777768 2.37235641 -6.60455559 2.48777331 -9.1171875 5.234375 C-10.21585516 7.01116768 -11.29636143 8.79930562 -12.359375 10.59765625 C-15.30233766 14.66623924 -19.43021603 16.68998747 -24.1875 18.125 C-24.8475 17.795 -25.5075 17.465 -26.1875 17.125 C-22.5575 15.145 -18.9275 13.165 -15.1875 11.125 C-24.73742044 8.68370797 -24.73742044 8.68370797 -33.86328125 11.1953125 C-37.23643514 12.54457405 -40.40178946 12.08418814 -43.9375 11.75 C-44.63488281 11.69328125 -45.33226562 11.6365625 -46.05078125 11.578125 C-47.76389312 11.43732128 -49.47584611 11.28254028 -51.1875 11.125 C-51.5175 11.785 -51.8475 12.445 -52.1875 13.125 C-52.1875 10.155 -52.1875 7.185 -52.1875 4.125 C-51.8575 4.125 -51.5275 4.125 -51.1875 4.125 C-51.1875 5.775 -51.1875 7.425 -51.1875 9.125 C-50.51203125 9.11339844 -49.8365625 9.10179688 -49.140625 9.08984375 C-47.80257812 9.07630859 -47.80257812 9.07630859 -46.4375 9.0625 C-45.11492187 9.04509766 -45.11492187 9.04509766 -43.765625 9.02734375 C-41.1875 9.125 -41.1875 9.125 -39.03515625 9.71875 C-36.95410575 10.38154293 -36.95410575 10.38154293 -34.375 8.6875 C-29.77747476 6.43381116 -26.00388703 6.51953766 -21.1875 8.125 C-17.126174 8.61041655 -17.126174 8.61041655 -13.1875 8.125 C-10.79619555 5.32985402 -10.79619555 5.32985402 -9.1875 2.125 C-5.66070901 -0.22619399 -4.15870515 -0.08943452 0 0 Z " fill="#747474" transform="translate(210.1875,112.875)"/>
	<path d="M0 0 C1.0625 2.375 1.0625 2.375 2 5 C2.95824253 6.36365283 3.94721175 7.70794169 5 9 C5.99 6.69 6.98 4.38 8 2 C8.66 2 9.32 2 10 2 C10.33 3.65 10.66 5.3 11 7 C10.01 7 9.02 7 8 7 C6.19380477 11.46236469 5.88341499 14.31034294 7 19 C7.66 19 8.32 19 9 19 C9.66 17.68 10.32 16.36 11 15 C14.875 18.75 14.875 18.75 16 21 C22.27620198 24.19726716 22.27620198 24.19726716 29 24.375 C32 24 32 24 33.875 25.4375 C34.24625 25.953125 34.6175 26.46875 35 27 C34.67 27.66 34.34 28.32 34 29 C33.505 28.2265625 33.505 28.2265625 33 27.4375 C30.87006681 25.56220129 30.87006681 25.56220129 27.0625 26.5 C26.35609375 26.61988281 25.6496875 26.73976562 24.921875 26.86328125 C23 27 23 27 20.8125 25.6875 C20.214375 25.130625 19.61625 24.57375 19 24 C17.7315625 23.5359375 17.7315625 23.5359375 16.4375 23.0625 C13.62908794 21.83832039 12.6175479 20.554023 11 18 C10.01 18.99 9.02 19.98 8 21 C7.01 20.67 6.02 20.34 5 20 C3.90234375 17.12890625 3.90234375 17.12890625 2.9375 13.5625 C1.79624454 8.80907708 1.79624454 8.80907708 -1 5 C-1.625 2.875 -1.625 2.875 -2 1 C-4.64 1 -7.28 1 -10 1 C-9.67 0.34 -9.34 -0.32 -9 -1 C-5.34955551 -2.18392794 -3.11559047 -2.36355139 0 0 Z " fill="#616161" transform="translate(183,182)"/>
	<path d="M0 0 C0 0.33 0 0.66 0 1 C-0.86625 1.2475 -1.7325 1.495 -2.625 1.75 C-6.18302254 3.06778613 -8.9226155 4.80186822 -12 7 C-11.67 8.65 -11.34 10.3 -11 12 C-12.32 12 -13.64 12 -15 12 C-16.66777819 14.95657355 -17.31679833 17.32163771 -17.59765625 20.6953125 C-17.71657227 22.01595703 -17.71657227 22.01595703 -17.83789062 23.36328125 C-17.91201172 24.27464844 -17.98613281 25.18601562 -18.0625 26.125 C-18.21654211 27.94040542 -18.37393116 29.7555309 -18.53515625 31.5703125 C-18.600979 32.37227051 -18.66680176 33.17422852 -18.73461914 34.00048828 C-19 36 -19 36 -20 38 C-19.01 38.66 -18.02 39.32 -17 40 C-19.64 40 -22.28 40 -25 40 C-24.03320312 38.97326172 -24.03320312 38.97326172 -23.046875 37.92578125 C-20.61828098 34.45437492 -20.41937308 32.3794837 -20.25 28.1875 C-20.19328125 27.02605469 -20.1365625 25.86460937 -20.078125 24.66796875 C-20.05234375 23.78753906 -20.0265625 22.90710938 -20 22 C-24.16317982 21.91462772 -24.16317982 21.91462772 -28.25 22.5625 C-30 23 -30 23 -32 22 C-32 21.34 -32 20.68 -32 20 C-30.68 20.33 -29.36 20.66 -28 21 C-28 20.34 -28 19.68 -28 19 C-25.36 19.33 -22.72 19.66 -20 20 C-19.896875 19.278125 -19.79375 18.55625 -19.6875 17.8125 C-18.93206053 14.72206579 -17.84468685 12.58256159 -16 10 C-15.34 10 -14.68 10 -14 10 C-15.2491742 6.54074837 -16.67527795 3.85306797 -19 1 C-18.4225 1.33 -17.845 1.66 -17.25 2 C-14.80116138 3.27075898 -14.80116138 3.27075898 -11 3 C-10.21625 2.505 -9.4325 2.01 -8.625 1.5 C-5.51671244 -0.27616432 -3.52217994 -0.24573348 0 0 Z " fill="#5B5B5B" transform="translate(140,248)"/>
	<path d="M0 0 C1.134375 0.020625 2.26875 0.04125 3.4375 0.0625 C3.4375 2.0425 3.4375 4.0225 3.4375 6.0625 C4.7575 6.3925 6.0775 6.7225 7.4375 7.0625 C6.7775 7.0625 6.1175 7.0625 5.4375 7.0625 C5.1075 9.3725 4.7775 11.6825 4.4375 14.0625 C3.7775 14.0625 3.1175 14.0625 2.4375 14.0625 C2.1075 15.0525 1.7775 16.0425 1.4375 17.0625 C-3.23047043 11.46093548 -4.98412586 8.5112235 -4.5625 1.0625 C-3.5625 0.0625 -3.5625 0.0625 0 0 Z " fill="#0F0F0F" transform="translate(243.5625,127.9375)"/>
	<path d="M0 0 C0.33 0.66 0.66 1.32 1 2 C3.34907875 2.68931344 3.34907875 2.68931344 6.0625 3.125 C6.98160156 3.29257812 7.90070313 3.46015625 8.84765625 3.6328125 C9.91306641 3.81457031 9.91306641 3.81457031 11 4 C10.01 4.33 9.02 4.66 8 5 C8 6.32 8 7.64 8 9 C8.99 9 9.98 9 11 9 C10.41196203 12.02419525 9.77321882 15.01758453 9 18 C7.35 18 5.7 18 4 18 C3.34 20.31 2.68 22.62 2 25 C0.35 25 -1.3 25 -3 25 C-1.68 24.67 -0.36 24.34 1 24 C1.33 21.69 1.66 19.38 2 17 C3.65 16.67 5.3 16.34 7 16 C7 15.01 7 14.02 7 13 C7.66 12.34 8.32 11.68 9 11 C8.34 10.67 7.68 10.34 7 10 C7 8.35 7 6.7 7 5 C0.4 5 -6.2 5 -13 5 C-13 7.31 -13 9.62 -13 12 C-13.66 11.67 -14.32 11.34 -15 11 C-15.1875 7.625 -15.1875 7.625 -15 4 C-11.71010944 1.80673963 -10.23291605 1.67671115 -6.375 1.4375 C-2.8749469 1.49724871 -2.8749469 1.49724871 0 0 Z " fill="#646464" transform="translate(276,282)"/>
	<path d="M0 0 C2.0625 0.4375 2.0625 0.4375 4 1 C3.01 1.33 2.02 1.66 1 2 C-0.09166275 3.93330603 -0.09166275 3.93330603 -1 6 C-1.66 6.66 -2.32 7.32 -3 8 C-2.67 8.66 -2.34 9.32 -2 10 C0.52733235 10.65555119 0.52733235 10.65555119 3 11 C3.66 12.98 4.32 14.96 5 17 C4.01 17.99 3.02 18.98 2 20 C1.67 19.34 1.34 18.68 1 18 C1.66 18 2.32 18 3 18 C2.34 16.35 1.68 14.7 1 13 C0.01 13 -0.98 13 -2 13 C-2.33 13.66 -2.66 14.32 -3 15 C-4.875 14.6875 -4.875 14.6875 -7 14 C-7.66 13.01 -8.32 12.02 -9 11 C-9.66 10.67 -10.32 10.34 -11 10 C-8.75 7.5 -8.75 7.5 -6 5 C-4.68 5 -3.36 5 -2 5 C-1.855625 4.360625 -1.71125 3.72125 -1.5625 3.0625 C-1 1 -1 1 0 0 Z " fill="#373737" transform="translate(106,248)"/>
	<path d="M0 0 C0.33 0 0.66 0 1 0 C0.93489583 1.88802083 0.86979167 3.77604167 0.8046875 5.6640625 C0.91401332 8.12913137 0.91401332 8.12913137 1.98046875 10.8359375 C3.87230734 16.70716071 4.56779251 24.39796431 2.0546875 30.171875 C-0.38949595 33.27706404 -3.24530139 34.92722897 -7 36 C-6.9278125 36.68707031 -6.855625 37.37414062 -6.78125 38.08203125 C-6.6884375 38.98308594 -6.595625 39.88414062 -6.5 40.8125 C-6.4071875 41.70582031 -6.314375 42.59914063 -6.21875 43.51953125 C-6 46 -6 46 -6 49 C-7.5 47.75 -7.5 47.75 -9 46 C-9 44.68 -9 43.36 -9 42 C-9.66 42 -10.32 42 -11 42 C-11 41.34 -11 40.68 -11 40 C-10.34 40 -9.68 40 -9 40 C-9 39.29875 -9 38.5975 -9 37.875 C-7.7873471 34.38862291 -7.05013968 34.38380628 -3.9375 32.6875 C-1.64236502 31.26461346 -1.64236502 31.26461346 0 29 C0.8441804 23.61248758 0.50543658 18.4109035 0 13 C-0.09539062 11.95714844 -0.19078125 10.91429687 -0.2890625 9.83984375 C-0.45851125 8.19619087 -0.65074883 6.5545053 -0.87890625 4.91796875 C-1 3 -1 3 0 0 Z " fill="#525252" transform="translate(201,257)"/>
	<path d="M0 0 C1.32 0 2.64 0 4 0 C4.268125 0.804375 4.53625 1.60875 4.8125 2.4375 C5.204375 3.283125 5.59625 4.12875 6 5 C6.99 5.33 7.98 5.66 9 6 C9 5.34 9 4.68 9 4 C10.32 4.33 11.64 4.66 13 5 C13.33 4.01 13.66 3.02 14 2 C20.52307692 1.63076923 20.52307692 1.63076923 22.9375 3.5 C23.288125 3.995 23.63875 4.49 24 5 C21.36 4.67 18.72 4.34 16 4 C15.67 4.66 15.34 5.32 15 6 C12.93359375 6.6328125 12.93359375 6.6328125 10.4375 7.125 C9.61121094 7.29257812 8.78492188 7.46015625 7.93359375 7.6328125 C7.29550781 7.75398438 6.65742188 7.87515625 6 8 C4.68 6.02 3.36 4.04 2 2 C2 2.99 2 3.98 2 5 C1.5107153 8.81642066 0.69534082 11.20839701 -2 14 C-5.36554823 15.72592217 -7.12819409 16 -11 16 C-11.33 15.01 -11.66 14.02 -12 13 C-11.46375 13.226875 -10.9275 13.45375 -10.375 13.6875 C-6.76363152 14.16268006 -4.95080113 13.03277411 -2 11 C-0.96142125 7.51334276 -1 4.64894497 -1 1 C-0.67 0.67 -0.34 0.34 0 0 Z " fill="#555555" transform="translate(377,325)"/>
	<path d="M0 0 C2.9375 0.75 2.9375 0.75 6 2 C7 4 7 4 7 6 C6.34 6.66 5.68 7.32 5 8 C5.27617533 9.94074861 5.27617533 9.94074861 6 12 C6.12375 12.680625 6.2475 13.36125 6.375 14.0625 C7.11919817 16.36951432 8.190755 17.42674348 10 19 C8.1875 18.875 8.1875 18.875 6 18 C4.15193211 14.91988684 2.24214775 11.63221619 2 8 C3.4375 5.75 3.4375 5.75 5 4 C1.06876267 2.90798963 -0.46538349 3.12223498 -4 5 C-6.75 5.125 -6.75 5.125 -9 5 C-8.484375 5.7425 -7.96875 6.485 -7.4375 7.25 C-6 10 -6 10 -6.3125 12.3125 C-6.539375 12.869375 -6.76625 13.42625 -7 14 C-8.32 14.33 -9.64 14.66 -11 15 C-11 14.34 -11 13.68 -11 13 C-10.01 13 -9.02 13 -8 13 C-8.7734375 11.9171875 -8.7734375 11.9171875 -9.5625 10.8125 C-11.21442982 7.5804634 -11.06351675 6.38391693 -10 3 C-9.04287109 2.80083984 -9.04287109 2.80083984 -8.06640625 2.59765625 C-7.24011719 2.42105469 -6.41382813 2.24445313 -5.5625 2.0625 C-4.73878906 1.88847656 -3.91507812 1.71445312 -3.06640625 1.53515625 C-1.02338796 1.19247006 -1.02338796 1.19247006 0 0 Z " fill="#545454" transform="translate(321,293)"/>
	<path d="M0 0 C3.63 1.65 7.26 3.3 11 5 C8.25 13.625 8.25 13.625 6 17 C7.216875 16.67 8.43375 16.34 9.6875 16 C12.87210604 15.19677787 15.6972843 14.79358027 19 15 C19.33 16.65 19.66 18.3 20 20 C19.01 19.67 18.02 19.34 17 19 C17 18.34 17 17.68 17 17 C11.44946714 17.74359673 11.44946714 17.74359673 6 19 C4.18024518 13.87160006 6.1400901 9.82315618 8 5 C3.50985524 3.92236526 1.66989054 3.62242533 -2.4375 5.9375 C-3.7059375 6.9584375 -3.7059375 6.9584375 -5 8 C-3.7191375 4.35446828 -2.83328987 2.83328987 0 0 Z " fill="#6A6A6A" transform="translate(179,63)"/>
	<path d="M0 0 C1.91015625 0.23046875 1.91015625 0.23046875 3.91015625 2.23046875 C4.03515625 4.85546875 4.03515625 4.85546875 3.91015625 7.23046875 C4.90015625 7.23046875 5.89015625 7.23046875 6.91015625 7.23046875 C6.91015625 9.56380208 6.91015625 11.89713542 6.91015625 14.23046875 C7.24015625 14.89046875 7.57015625 15.55046875 7.91015625 16.23046875 C7.18828125 15.87984375 6.46640625 15.52921875 5.72265625 15.16796875 C2.42473032 14.06866011 1.18604222 14.13850676 -2.08984375 15.23046875 C-4.49502647 16.47071954 -6.77399719 17.82279731 -9.08984375 19.23046875 C-8.03523242 16.17209589 -7.14919321 15.26688773 -4.33984375 13.54296875 C-1.20460296 12.27681382 1.56342784 11.6288888 4.91015625 11.23046875 C4.91015625 10.57046875 4.91015625 9.91046875 4.91015625 9.23046875 C3.92015625 8.57046875 2.93015625 7.91046875 1.91015625 7.23046875 C1.22265625 4.60546875 1.22265625 4.60546875 0.91015625 2.23046875 C-3.21958003 2.79786743 -3.21958003 2.79786743 -7.08984375 4.23046875 C-9.42283035 4.27069266 -11.75691041 4.27367122 -14.08984375 4.23046875 C-14.41984375 3.57046875 -14.74984375 2.91046875 -15.08984375 2.23046875 C-13.0390625 2.00260417 -10.98828125 1.77473958 -8.9375 1.546875 C-5.86881431 1.02137069 -3.48006383 0.06947496 0 0 Z " fill="#5A5A5A" transform="translate(357.08984375,321.76953125)"/>
	<path d="M0 0 C0.66 0.33 1.32 0.66 2 1 C2.40729228 3.32156597 2.74438677 5.6568787 3 8 C2.360625 8.268125 1.72125 8.53625 1.0625 8.8125 C-1.33131686 9.88667752 -1.33131686 9.88667752 -2 13 C-2.99 12.67 -3.98 12.34 -5 12 C-5 11.34 -5 10.68 -5 10 C-7.31 10.33 -9.62 10.66 -12 11 C-12.18175781 11.83144531 -12.36351562 12.66289062 -12.55078125 13.51953125 C-12.80214844 14.60621094 -13.05351562 15.69289063 -13.3125 16.8125 C-13.55613281 17.89144531 -13.79976563 18.97039062 -14.05078125 20.08203125 C-14.98201592 22.9447156 -15.68760535 24.15397066 -18 26 C-16.95964221 20.08638727 -15.84164807 13.79324896 -12 9 C-8.375 7.5625 -8.375 7.5625 -5 7 C-4.34 6.67 -3.68 6.34 -3 6 C-3 6.66 -3 7.32 -3 8 C-1.68 7.67 -0.36 7.34 1 7 C0.67 4.69 0.34 2.38 0 0 Z " fill="#565656" transform="translate(335,385)"/>
	<path d="M0 0 C6.05537521 0.30276876 9.51483458 3.27754038 14 7 C13.67 7.66 13.34 8.32 13 9 C12.29875 8.38125 11.5975 7.7625 10.875 7.125 C7.89312406 4.92100474 5.61471501 3.78580761 2 3 C1.01 3.66 0.02 4.32 -1 5 C-2.14597656 5.07089844 -3.29195312 5.14179688 -4.47265625 5.21484375 C-8.24010873 5.63036574 -8.24010873 5.63036574 -9.99609375 8.94140625 C-10.70958984 10.73384766 -10.70958984 10.73384766 -11.4375 12.5625 C-11.93121094 13.76003906 -12.42492187 14.95757812 -12.93359375 16.19140625 C-13.28550781 17.11824219 -13.63742188 18.04507813 -14 19 C-14.6796875 17.35546875 -14.6796875 17.35546875 -15 15 C-13.8203125 12.23828125 -13.8203125 12.23828125 -12.125 9.3125 C-11.57070312 8.33925781 -11.01640625 7.36601562 -10.4453125 6.36328125 C-9 4 -9 4 -8 3 C-5.32941149 2.85884839 -2.67567762 2.95752893 0 3 C0 2.01 0 1.02 0 0 Z " fill="#656565" transform="translate(228,213)"/>
	<path d="M0 0 C2.625 0.375 2.625 0.375 5 1 C5.66 3.31 6.32 5.62 7 8 C4.69 7.67 2.38 7.34 0 7 C0 8.32 0 9.64 0 11 C-1.051875 10.79375 -2.10375 10.5875 -3.1875 10.375 C-6.86556641 9.68864013 -6.86556641 9.68864013 -9.4375 11.125 C-13.40257492 12.47892802 -16.32816933 10.69469108 -20 9 C-20 8.34 -20 7.68 -20 7 C-19.29875 7.144375 -18.5975 7.28875 -17.875 7.4375 C-16.451875 7.7159375 -16.451875 7.7159375 -15 8 C-13.4221875 8.3403125 -13.4221875 8.3403125 -11.8125 8.6875 C-10.4203125 8.8421875 -10.4203125 8.8421875 -9 9 C-8.34 8.34 -7.68 7.68 -7 7 C-4.73725212 7.35355436 -3.04911148 7.97544426 -1 9 C-1 8.01 -1 7.02 -1 6 C1.97 6.495 1.97 6.495 5 7 C4.67 5.35 4.34 3.7 4 2 C2.02 2 0.04 2 -2 2 C-1.34 1.34 -0.68 0.68 0 0 Z " fill="#787878" transform="translate(269,111)"/>
	<path d="M0 0 C0.66 0.33 1.32 0.66 2 1 C-0.68841859 3.25245881 -2.64641875 4.88213958 -6 6 C-6 6.99 -6 7.98 -6 9 C-10.455 9.495 -10.455 9.495 -15 10 C-15 9.34 -15 8.68 -15 8 C-16.65 8.33 -18.3 8.66 -20 9 C-19.67 8.34 -19.34 7.68 -19 7 C-18.34 7 -17.68 7 -17 7 C-16.67 6.01 -16.34 5.02 -16 4 C-15.34 5.32 -14.68 6.64 -14 8 C-13.01 7.67 -12.02 7.34 -11 7 C-10.26676204 4.98491642 -10.26676204 4.98491642 -10 3 C-8.72125 2.87625 -7.4425 2.7525 -6.125 2.625 C-2.65209064 2.30957601 -2.65209064 2.30957601 0 0 Z " fill="#484848" transform="translate(142,198)"/>
	<path d="M0 0 C3.63 0 7.26 0 11 0 C10.79375 1.11375 10.5875 2.2275 10.375 3.375 C10.25125 4.57125 10.1275 5.7675 10 7 C10.66 7.66 11.32 8.32 12 9 C11.625 11.625 11.625 11.625 11 14 C8.625 14.625 8.625 14.625 6 15 C5.34 14.34 4.68 13.68 4 13 C2.01178687 12.60235737 0.01055661 12.26224651 -2 12 C-2 11.67 -2 11.34 -2 11 C0.64 11 3.28 11 6 11 C6 11.66 6 12.32 6 13 C7.32 12.67 8.64 12.34 10 12 C8.77992056 9.3094472 8.77992056 9.3094472 7 7 C6.95936168 5.33382885 6.957279 3.66611905 7 2 C4.69 1.67 2.38 1.34 0 1 C0 0.67 0 0.34 0 0 Z " fill="#5A5A5A" transform="translate(338,373)"/>
	<path d="M0 0 C0.66 0 1.32 0 2 0 C7 5.23809524 7 5.23809524 7 10 C9.31 9.01 11.62 8.02 14 7 C14.33 7.66 14.66 8.32 15 9 C17.01669827 10.13350534 17.01669827 10.13350534 19 11 C12.42150508 11.95494281 6.58183362 11.8931507 0 11 C-0.33 12.32 -0.66 13.64 -1 15 C-1.66 14.67 -2.32 14.34 -3 14 C-2.67 12.68 -2.34 11.36 -2 10 C0.64 10 3.28 10 6 10 C4.19587357 6.73539027 3.16605307 5.11070205 0 3 C0 2.01 0 1.02 0 0 Z " fill="#646464" transform="translate(356,196)"/>
	<path d="M0 0 C1.17949219 0.11085938 2.35898438 0.22171875 3.57421875 0.3359375 C4.47785156 0.43132812 5.38148438 0.52671875 6.3125 0.625 C6.3125 3.925 6.3125 7.225 6.3125 10.625 C8.6225 10.625 10.9325 10.625 13.3125 10.625 C13.9375 12.5 13.9375 12.5 14.3125 14.625 C13.6525 15.285 12.9925 15.945 12.3125 16.625 C12.3125 15.305 12.3125 13.985 12.3125 12.625 C10.85426788 12.5979957 9.39589325 12.57860213 7.9375 12.5625 C6.71933594 12.54509766 6.71933594 12.54509766 5.4765625 12.52734375 C3.26312858 12.48033666 3.26312858 12.48033666 1.3125 13.625 C1.6425 12.635 1.9725 11.645 2.3125 10.625 C3.3025 10.625 4.2925 10.625 5.3125 10.625 C5.126875 9.861875 4.94125 9.09875 4.75 8.3125 C4.3125 5.625 4.3125 5.625 5.3125 2.625 C0.3625 2.295 -4.5875 1.965 -9.6875 1.625 C-5.94784036 -0.86810643 -4.39679359 -0.4353261 0 0 Z " fill="#626262" transform="translate(207.6875,127.375)"/>
	<path d="M0 0 C0 0.99 0 1.98 0 3 C-0.33 3.33 -0.66 3.66 -1 4 C0.32 4.33 1.64 4.66 3 5 C4.46845421 10.47332932 3.44038726 13.11922548 1 18 C1.99 18 2.98 18 4 18 C4 18.66 4 19.32 4 20 C2.02 19.67 0.04 19.34 -2 19 C-2.33 17.68 -2.66 16.36 -3 15 C-4.98 15 -6.96 15 -9 15 C-8.67 14.34 -8.34 13.68 -8 13 C-4.28400809 12.79913557 -3.22791555 12.8480563 0 15 C0.66 12.03 1.32 9.06 2 6 C0.35 6 -1.3 6 -3 6 C-2.42655063 3.13275314 -2.1385485 2.1385485 0 0 Z " fill="#6F6F6F" transform="translate(347,106)"/>
	<path d="M0 0 C0.9075 0.165 1.815 0.33 2.75 0.5 C6.11087503 1.10137146 6.11087503 1.10137146 10 1 C10.33 2.65 10.66 4.3 11 6 C12.32 6.33 13.64 6.66 15 7 C14.67 8.32 14.34 9.64 14 11 C12 11 12 11 10.375 9.625 C9 8 9 8 9 6 C8.21625 6.20625 7.4325 6.4125 6.625 6.625 C5.75875 6.74875 4.8925 6.8725 4 7 C3.34 6.34 2.68 5.68 2 5 C2 4.01 2 3.02 2 2 C1.34 2 0.68 2 0 2 C0 1.34 0 0.68 0 0 Z " fill="#373737" transform="translate(392,111)"/>
	<path d="M0 0 C0 0.33 0 0.66 0 1 C-1.65 1 -3.3 1 -5 1 C-5.33 1.99 -5.66 2.98 -6 4 C-6.99 5.485 -6.99 5.485 -8 7 C-8.66 7 -9.32 7 -10 7 C-10 7.66 -10 8.32 -10 9 C-12.475 8.01 -12.475 8.01 -15 7 C-15 6.01 -15 5.02 -15 4 C-10.15425142 -0.34874873 -6.16482758 -0.49318621 0 0 Z " fill="#303030" transform="translate(195,57)"/>
	<path d="M0 0 C0.95465783 2.16967689 1.14401212 3.56328793 0.3984375 5.82421875 C-0.35870385 7.5684743 -1.17609198 9.28627131 -2 11 C-0.68 11.33 0.64 11.66 2 12 C2.20086443 15.71599191 2.1519437 16.77208445 0 20 C0.78375 19.938125 1.5675 19.87625 2.375 19.8125 C3.674375 19.9053125 3.674375 19.9053125 5 20 C5.66 20.99 6.32 21.98 7 23 C2.545 22.01 2.545 22.01 -2 21 C-1.22404875 17.89619499 -0.4731994 15.74997221 1 13 C-0.65 12.67 -2.3 12.34 -4 12 C-3.33501617 7.61110675 -1.81242323 4.0188515 0 0 Z " fill="#585858" transform="translate(243,228)"/>
	<path d="M0 0 C2.66666667 1.33333333 5.33333333 2.66666667 8 4 C8.33 3.34 8.66 2.68 9 2 C10.32 2.66 11.64 3.32 13 4 C11.71034824 5.37562854 10.37310707 6.70766393 9 8 C7 8 7 8 4.5 5.5625 C3.675 4.716875 2.85 3.87125 2 3 C1.34 2.67 0.68 2.34 0 2 C1.00193437 5.79303725 1.81024227 8.71536341 4 12 C3.625 14.6875 3.625 14.6875 3 17 C2.34 16.67 1.68 16.34 1 16 C0.62061383 14.00822259 0.29714023 12.00569659 0 10 C-0.391875 8.783125 -0.78375 7.56625 -1.1875 6.3125 C-1.5896875 4.6728125 -1.5896875 4.6728125 -2 3 C-1.34 2.01 -0.68 1.02 0 0 Z " fill="#6D6D6D" transform="translate(215,96)"/>
	<path d="M0 0 C0.66 0 1.32 0 2 0 C2 0.66 2 1.32 2 2 C2.99 2.33 3.98 2.66 5 3 C4.625 4.9375 4.625 4.9375 4 7 C3.01 7.495 3.01 7.495 2 8 C3.98 8.66 5.96 9.32 8 10 C8.33 11.65 8.66 13.3 9 15 C7.68 14.67 6.36 14.34 5 14 C5.66 14 6.32 14 7 14 C7 13.01 7 12.02 7 11 C6.2575 11.04125 5.515 11.0825 4.75 11.125 C1.91241048 10.99601866 0.41226062 10.42948778 -2 9 C-2 8.01 -2 7.02 -2 6 C-1.34 5.67 -0.68 5.34 0 5 C0 3.35 0 1.7 0 0 Z " fill="#656565" transform="translate(265,164)"/>
	<path d="M0 0 C0.66 0.33 1.32 0.66 2 1 C1.67 3.64 1.34 6.28 1 9 C2.94074861 8.72382467 2.94074861 8.72382467 5 8 C5.66 7.01 6.32 6.02 7 5 C7.66 5.33 8.32 5.66 9 6 C5.38671875 10.6875 5.38671875 10.6875 4 12 C3.01 12 2.02 12 1 12 C0.67 12.66 0.34 13.32 0 14 C-0.99 14 -1.98 14 -3 14 C-2.58846263 9.02906176 -2.20399168 4.55491614 0 0 Z " fill="#515151" transform="translate(204,94)"/>
	<path d="M0 0 C5.44693314 -0.09688221 10.63904667 -0.12862175 16 1 C15.67 2.32 15.34 3.64 15 5 C11.66666667 5 8.33333333 5 5 5 C5.66 4.34 6.32 3.68 7 3 C4.69 2.67 2.38 2.34 0 2 C0 1.34 0 0.68 0 0 Z " fill="#565656" transform="translate(258,83)"/>
	<path d="M0 0 C5.84556473 11.35782973 5.84556473 11.35782973 4.1875 17.0625 C3.5996875 18.5165625 3.5996875 18.5165625 3 20 C6.465 19.505 6.465 19.505 10 19 C7.4345406 21.5654594 5.52313332 21.54046087 2 22 C0.875 18.25 0.875 18.25 2 16 C2.28536623 11.85938466 2.28536623 11.85938466 1 8 C-0.35729199 5.28541602 -0.13587738 2.98930243 0 0 Z " fill="#4E4E4E" transform="translate(350,76)"/>
	<path d="M0 0 C0.66 0 1.32 0 2 0 C2 0.99 2 1.98 2 3 C3.60875 3.86625 3.60875 3.86625 5.25 4.75 C8.29711644 6.49297533 10.72988998 8.27586798 13 11 C13 11.66 13 12.32 13 13 C16.3 13 19.6 13 23 13 C23 13.33 23 13.66 23 14 C15.39822764 15.70617557 15.39822764 15.70617557 12.06640625 14.0234375 C10.4375 12.6875 10.4375 12.6875 8 10 C8 9.34 8 8.68 8 8 C7.05125 7.71125 6.1025 7.4225 5.125 7.125 C2 6 2 6 0 4 C0 2.68 0 1.36 0 0 Z " fill="#535353" transform="translate(268,179)"/>
	<path d="M0 0 C2.22942748 0.14179038 4.45853628 0.28859698 6.6875 0.4375 C7.92886719 0.51871094 9.17023438 0.59992188 10.44921875 0.68359375 C14 1 14 1 16.8125 1.59375 C19.53937931 2.10017044 20.6968905 1.45010598 23 0 C21.54643338 3.75504711 21.54643338 3.75504711 19.1875 4.8125 C16.59755375 5.03449539 14.53888735 4.54404729 12 4 C10.0003559 3.96227087 7.99945939 3.95350094 6 4 C6 3.34 6 2.68 6 2 C4.02 2 2.04 2 0 2 C0 1.34 0 0.68 0 0 Z " fill="#7D7D7D" transform="translate(285,373)"/>
	<path d="M0 0 C0 1.65 0 3.3 0 5 C1.65 5 3.3 5 5 5 C4.34 5.66 3.68 6.32 3 7 C0.375 6.625 0.375 6.625 -2 6 C-2 4.35 -2 2.7 -2 1 C-3.2684375 1.495 -3.2684375 1.495 -4.5625 2 C-8.20989216 3.06105954 -11.22274664 3.15109013 -15 3 C-14.67 2.34 -14.34 1.68 -14 1 C-11.85546875 0.33203125 -11.85546875 0.33203125 -9.1875 -0.1875 C-8.31480469 -0.36667969 -7.44210937 -0.54585938 -6.54296875 -0.73046875 C-4.02642222 -0.99719949 -2.38332645 -0.78333107 0 0 Z " fill="#808080" transform="translate(333,116)"/>
	<path d="M0 0 C1.98 0 3.96 0 6 0 C6.6875 1.625 6.6875 1.625 7 4 C5.5625 7.25 5.5625 7.25 4 10 C5.98 10.66 7.96 11.32 10 12 C7.39417629 12.93065133 6.35801776 13.14917407 3.75 12.0625 C3.1725 11.711875 2.595 11.36125 2 11 C2.52268466 8.23723823 3.10869587 5.6739124 4 3 C2.68 2.67 1.36 2.34 0 2 C0 1.34 0 0.68 0 0 Z " fill="#4C4C4C" transform="translate(257,99)"/>
	<path d="M0 0 C1.485 0.99 1.485 0.99 3 2 C4.98799818 2.70164642 6.98698517 3.37372872 9 4 C9.33 5.98 9.66 7.96 10 10 C8.35 10.33 6.7 10.66 5 11 C5.33 12.65 5.66 14.3 6 16 C5.01 15.67 4.02 15.34 3 15 C3.33 13.35 3.66 11.7 4 10 C5.32 9.67 6.64 9.34 8 9 C7.67 7.35 7.34 5.7 7 4 C5.35 4 3.7 4 2 4 C1.34 2.68 0.68 1.36 0 0 Z " fill="#595959" transform="translate(257,256)"/>
	<path d="M0 0 C0.66 0.33 1.32 0.66 2 1 C2 3.64 2 6.28 2 9 C-2.95 9 -7.9 9 -13 9 C-9.25631258 7.12815629 -8.1599209 6.76000233 -4.25 6.875 C-3.45078125 6.89304688 -2.6515625 6.91109375 -1.828125 6.9296875 C-1.22484375 6.95289063 -0.6215625 6.97609375 0 7 C0 4.69 0 2.38 0 0 Z " fill="#666666" transform="translate(291,193)"/>
	<path d="M0 0 C3.63 1.65 7.26 3.3 11 5 C10 7 10 7 8 8 C8 7.01 8 6.02 8 5 C3.50985524 3.92236526 1.66989054 3.62242533 -2.4375 5.9375 C-3.7059375 6.9584375 -3.7059375 6.9584375 -5 8 C-3.7191375 4.35446828 -2.83328987 2.83328987 0 0 Z " fill="#515151" transform="translate(179,63)"/>
	<path d="M0 0 C2 2 2 2 2 6 C-0.64738916 7.4606285 -1.89448334 8 -5 8 C-5 7.34 -5 6.68 -5 6 C-5.66 5.67 -6.32 5.34 -7 5 C-6.030625 4.360625 -5.06125 3.72125 -4.0625 3.0625 C-1.23963731 1.3034741 -1.23963731 1.3034741 0 0 Z " fill="#1C1B1B" transform="translate(396,440)"/>
	<path d="M0 0 C1.89213369 2.38573379 3.02391783 4.07175348 4 7 C3.01 8.485 3.01 8.485 2 10 C2 10.928125 2 11.85625 2 12.8125 C2 16.27608601 1.22542594 18.78325691 0 22 C-0.33 22 -0.66 22 -1 22 C-1.16307771 17.51536292 -1.02782286 13.67379144 0.0625 9.3125 C0.91132341 5.8815914 1.11063159 3.44295793 0 0 Z " fill="#615F60" transform="translate(238,337)"/>
	<path d="M0 0 C2 1.75 2 1.75 4 4 C4 5.32 4 6.64 4 8 C3.34 8 2.68 8 2 8 C2 8.66 2 9.32 2 10 C1.34 10 0.68 10 0 10 C-0.185625 9.071875 -0.185625 9.071875 -0.375 8.125 C-0.87197356 5.80879168 -0.87197356 5.80879168 -3 4 C-2.67 3.34 -2.34 2.68 -2 2 C-1.34 2 -0.68 2 0 2 C0 1.34 0 0.68 0 0 Z " fill="#1F1F1F" transform="translate(385,418)"/>
	<path d="M0 0 C0.33 0.66 0.66 1.32 1 2 C-1.97 1.505 -1.97 1.505 -5 1 C-5.33 3.64 -5.66 6.28 -6 9 C-6.268125 8.38125 -6.53625 7.7625 -6.8125 7.125 C-7.95556848 4.7004767 -7.95556848 4.7004767 -11 3 C-7.53968409 -0.78986981 -4.94355804 -1.43102996 0 0 Z " fill="#2D2D2D" transform="translate(376,150)"/>
	<path d="M0 0 C2.86724686 0.57344937 3.8614515 0.8614515 6 3 C1.57221156 5.74522883 -1.71862571 7.48474397 -7 8 C-4.64046906 5.64046906 -3.22104383 5.50858587 0 5 C-0.33 4.01 -0.66 3.02 -1 2 C-0.67 1.34 -0.34 0.68 0 0 Z " fill="#3C3C3C" transform="translate(315,365)"/>
	<path d="M0 0 C0.33 0 0.66 0 1 0 C1.33 1.98 1.66 3.96 2 6 C2.5775 6.061875 3.155 6.12375 3.75 6.1875 C6.88690987 7.32027301 8.09167504 9.34197595 10 12 C8.68 12 7.36 12 6 12 C5.67 10.68 5.34 9.36 5 8 C3.35 8 1.7 8 0 8 C0.33 8.99 0.66 9.98 1 11 C0.01 11.66 -0.98 12.32 -2 13 C-1.855625 12.154375 -1.71125 11.30875 -1.5625 10.4375 C-0.9941203 6.96406851 -0.48797607 3.48554338 0 0 Z " fill="#747474" transform="translate(237,319)"/>
	<path d="M0 0 C0.66 0.33 1.32 0.66 2 1 C2.40729228 3.32156597 2.74438677 5.6568787 3 8 C2.360625 8.28875 1.72125 8.5775 1.0625 8.875 C-1.15206079 9.82823451 -1.15206079 9.82823451 -2 12 C-2.99 11.01 -3.98 10.02 -5 9 C-4.67 8.01 -4.34 7.02 -4 6 C-3.67 6.66 -3.34 7.32 -3 8 C-1.68 7.67 -0.36 7.34 1 7 C0.67 4.69 0.34 2.38 0 0 Z " fill="#454545" transform="translate(335,385)"/>
	<path d="M0 0 C0.33 0.66 0.66 1.32 1 2 C1.66 2 2.32 2 3 2 C1.25 6.875 1.25 6.875 -1 8 C-1.99 7.01 -2.98 6.02 -4 5 C-3 2 -3 2 0 0 Z " fill="#070707" transform="translate(405,146)"/>
	<path d="M0 0 C-0.33 1.32 -0.66 2.64 -1 4 C-2.98 4 -4.96 4 -7 4 C-7 3.01 -7 2.02 -7 1 C-7.66 0.67 -8.32 0.34 -9 0 C-5.62182575 -0.84454356 -3.32534757 -1.10844919 0 0 Z " fill="#444444" transform="translate(364,131)"/>
	<path d="M0 0 C0.66 0.66 1.32 1.32 2 2 C3.31747324 2.69748583 4.64914193 3.36959957 6 4 C4.58456585 4.19658808 3.16755969 4.38187546 1.75 4.5625 C0.96109375 4.66691406 0.1721875 4.77132812 -0.640625 4.87890625 C-3.00532874 5.00027349 -4.7511037 4.69633257 -7 4 C-4.69 2.68 -2.38 1.36 0 0 Z " fill="#3D3D3D" transform="translate(369,203)"/>
	<path d="M0 0 C0.66 0.33 1.32 0.66 2 1 C-0.68841859 3.25245881 -2.64641875 4.88213958 -6 6 C-6.33 6.66 -6.66 7.32 -7 8 C-7.99 7.34 -8.98 6.68 -10 6 C-10 5.01 -10 4.02 -10 3 C-8.72125 2.87625 -7.4425 2.7525 -6.125 2.625 C-2.65209064 2.30957601 -2.65209064 2.30957601 0 0 Z " fill="#5B5B5B" transform="translate(142,198)"/>
	<path d="M0 0 C-0.33 0.66 -0.66 1.32 -1 2 C-3.64 2 -6.28 2 -9 2 C-8.67 4.64 -8.34 7.28 -8 10 C-8.99 9.34 -9.98 8.68 -11 8 C-10.74438677 5.6568787 -10.40729228 3.32156597 -10 1 C-6.78548731 -0.60725635 -3.56387464 -0.05748185 0 0 Z " fill="#555555" transform="translate(362,183)"/>
	<path d="M0 0 C0.99 0.495 0.99 0.495 2 1 C2.4140625 3.06640625 2.4140625 3.06640625 2.625 5.5625 C2.69976562 6.38878906 2.77453125 7.21507813 2.8515625 8.06640625 C2.92503906 9.02353516 2.92503906 9.02353516 3 10 C4.65 10.33 6.3 10.66 8 11 C7.34 12.32 6.68 13.64 6 15 C6 14.01 6 13.02 6 12 C4.35 12 2.7 12 1 12 C0.01751476 7.9472484 -0.08159574 4.16138263 0 0 Z " fill="#525252" transform="translate(345,60)"/>
	<path d="M0 0 C1.65 0 3.3 0 5 0 C5.12375 0.61875 5.2475 1.2375 5.375 1.875 C5.87197356 4.19120832 5.87197356 4.19120832 8 6 C7.34 7.32 6.68 8.64 6 10 C3.4345406 7.4345406 3.45953913 5.52313332 3 2 C2.01 1.67 1.02 1.34 0 1 C0 0.67 0 0.34 0 0 Z " fill="#353535" transform="translate(352,413)"/>
	<path d="M0 0 C0.66 0.99 1.32 1.98 2 3 C4.6556728 3.58348752 4.6556728 3.58348752 7.625 3.6875 C8.62789063 3.75324219 9.63078125 3.81898438 10.6640625 3.88671875 C11.43492187 3.92410156 12.20578125 3.96148437 13 4 C13 4.33 13 4.66 13 5 C8.38 5.33 3.76 5.66 -1 6 C-0.67 4.02 -0.34 2.04 0 0 Z " fill="#696869" transform="translate(400,335)"/>
	<path d="M0 0 C0.99 0.33 1.98 0.66 3 1 C3.33 2.65 3.66 4.3 4 6 C3.34 6 2.68 6 2 6 C1.67 6.66 1.34 7.32 1 8 C0.34 7.67 -0.32 7.34 -1 7 C-0.34 5.35 0.32 3.7 1 2 C0.34 1.67 -0.32 1.34 -1 1 C-0.67 0.67 -0.34 0.34 0 0 Z " fill="#505050" transform="translate(80,253)"/>
	<path d="M0 0 C0.33 0 0.66 0 1 0 C1 2.31 1 4.62 1 7 C1.66 7.33 2.32 7.66 3 8 C1.35 8 -0.3 8 -2 8 C-2.6875 6.25 -2.6875 6.25 -3 4 C-1.625 1.75 -1.625 1.75 0 0 Z " fill="#0A0A0A" transform="translate(130,198)"/>
	<path d="M0 0 C0.33 0 0.66 0 1 0 C1 1.65 1 3.3 1 5 C1.99 5.33 2.98 5.66 4 6 C4.33 7.98 4.66 9.96 5 12 C4.67 11.01 4.34 10.02 4 9 C1.98491642 8.26676204 1.98491642 8.26676204 0 8 C0 5.36 0 2.72 0 0 Z " fill="#232323" transform="translate(361,138)"/>
	<path d="M0 0 C3.96 0 7.92 0 12 0 C9.20503934 2.79496066 6.86404416 2.66104876 3 3 C2.01 2.67 1.02 2.34 0 2 C0 1.34 0 0.68 0 0 Z " fill="#444444" transform="translate(204,113)"/>
	<path d="M0 0 C0.66 0 1.32 0 2 0 C2 0.66 2 1.32 2 2 C2.66 2.33 3.32 2.66 4 3 C3.34 4.32 2.68 5.64 2 7 C1.01 6.67 0.02 6.34 -1 6 C-0.67 4.02 -0.34 2.04 0 0 Z " fill="#060606" transform="translate(347,55)"/>
	<path d="M0 0 C1.32 0.33 2.64 0.66 4 1 C3.34 2.32 2.68 3.64 2 5 C0.35 5 -1.3 5 -3 5 C-3 4.34 -3 3.68 -3 3 C-2.34 3 -1.68 3 -1 3 C-0.67 2.01 -0.34 1.02 0 0 Z " fill="#070707" transform="translate(388,337)"/>
	<path d="M0 0 C2.0625 0.4375 2.0625 0.4375 4 1 C3.01 1.33 2.02 1.66 1 2 C-0.20882096 4.00016466 -0.20882096 4.00016466 -1 6 C-2.65 6 -4.3 6 -6 6 C-4.68 5.67 -3.36 5.34 -2 5 C-1.855625 4.360625 -1.71125 3.72125 -1.5625 3.0625 C-1 1 -1 1 0 0 Z " fill="#4F4F4F" transform="translate(106,248)"/>
	<path d="M0 0 C1.48199902 0.44909061 2.96055236 0.90956564 4.4375 1.375 C5.26121094 1.63023437 6.08492188 1.88546875 6.93359375 2.1484375 C9 3 9 3 10 5 C7.03 4.67 4.06 4.34 1 4 C0.67 2.68 0.34 1.36 0 0 Z " fill="#4D4D4D" transform="translate(347,171)"/>
	<path d="M0 0 C2.31 0 4.62 0 7 0 C7.625 1.875 7.625 1.875 8 4 C7.34 4.66 6.68 5.32 6 6 C6 4.68 6 3.36 6 2 C4.02 2 2.04 2 0 2 C0 1.34 0 0.68 0 0 Z " fill="#4C4C4C" transform="translate(214,138)"/>
	<path d="M0 0 C0.33 0.66 0.66 1.32 1 2 C2.32 2 3.64 2 5 2 C4.67 3.32 4.34 4.64 4 6 C2.68 6 1.36 6 0 6 C-1.125 2.25 -1.125 2.25 0 0 Z " fill="#393939" transform="translate(314,114)"/>
	<path d="M0 0 C0.99 0.66 1.98 1.32 3 2 C3 2.99 3 3.98 3 5 C0.04335481 6.4783226 -2.74229737 6.06032783 -6 6 C-6 5.67 -6 5.34 -6 5 C-4.35 5 -2.7 5 -1 5 C-0.67 3.35 -0.34 1.7 0 0 Z " fill="#707070" transform="translate(173,185)"/>
	<path d="M0 0 C1.32 0.33 2.64 0.66 4 1 C4 1.66 4 2.32 4 3 C3.0409375 3.433125 3.0409375 3.433125 2.0625 3.875 C-0.15206079 4.82823451 -0.15206079 4.82823451 -1 7 C-1.99 6.67 -2.98 6.34 -4 6 C-3.34 6 -2.68 6 -2 6 C-1.34 4.02 -0.68 2.04 0 0 Z " fill="#707070" transform="translate(208,163)"/>
	<path d="M0 0 C0.66 0 1.32 0 2 0 C2 0.66 2 1.32 2 2 C2.99 2.33 3.98 2.66 5 3 C5 3.99 5 4.98 5 6 C3.35 6 1.7 6 0 6 C0 4.02 0 2.04 0 0 Z " fill="#3E3E3E" transform="translate(265,164)"/>
	<path d="M0 0 C2.475 0.495 2.475 0.495 5 1 C4.67 2.98 4.34 4.96 4 7 C2 5.1875 2 5.1875 0 3 C0 2.01 0 1.02 0 0 Z " fill="#313131" transform="translate(248,119)"/>
	<path d="M0 0 C-0.33 0.99 -0.66 1.98 -1 3 C-3.31 3 -5.62 3 -8 3 C-7.67 2.01 -7.34 1.02 -7 0 C-2.25 -1.125 -2.25 -1.125 0 0 Z " fill="#070707" transform="translate(127,284)"/>
	<path d="M0 0 C1.67542976 0.28604898 3.34385343 0.61781233 5 1 C4.67 2.65 4.34 4.3 4 6 C2.35 4.35 0.7 2.7 -1 1 C-0.67 0.67 -0.34 0.34 0 0 Z " fill="#171717" transform="translate(208,155)"/>
	<path d="M0 0 C2.00720923 0.28674418 4.0085944 0.61866701 6 1 C5.01 2.32 4.02 3.64 3 5 C1 4 1 4 -1 1 C-0.67 0.67 -0.34 0.34 0 0 Z " fill="#070707" transform="translate(227,75)"/>
	<path d="M0 0 C2.72869407 0.03287583 5.2966618 0.56397771 8 1 C7.67 1.99 7.34 2.98 7 4 C5.6078125 3.505 5.6078125 3.505 4.1875 3 C1.07970709 1.85032996 1.07970709 1.85032996 -2 2 C-1.34 1.34 -0.68 0.68 0 0 Z " fill="#626262" transform="translate(146,253)"/>
	<path d="M0 0 C1.32 0.33 2.64 0.66 4 1 C0.93882432 3.62386487 0.26826873 4 -4 4 C-4.33 4.66 -4.66 5.32 -5 6 C-5.33 5.01 -5.66 4.02 -6 3 C-4.35 3 -2.7 3 -1 3 C-0.67 2.01 -0.34 1.02 0 0 Z " fill="#6F6F6F" transform="translate(388,113)"/>
</svg>
